<svg xmlns="http://www.w3.org/2000/svg" width="411.3" height="372.6"><path d="M411 2.1c-.3-.7-.8-1.2-1.4-1.5-.6-.4-1.3-.6-2-.6-.5 0-1.1.1-1.6.4-.5.3-1 .7-1.3 1.2l-58.2 82.3-.3.3-96.1 37.5c-.7.3-1.3.8-1.7 1.3-.4.6-.6 1.3-.6 2 0 .4.1.9.2 1.3l1 2.5c.3.7.8 1.3 1.3 1.7.6.4 1.3.6 2 .6.4 0 .9-.1 1.3-.2l98.1-38.3c.7-.3 1.2-.7 1.6-1.3l27.1-38.4c.1-.2.2-.2.3-.3.1 0 .2-.1.3-.1.2 0 .4.1.6.2.1.1.1.2.2.2 0 .1.1.2.1.3 0 .1 0 .2-.1.3L361.7 106c-.1.1-.2.3-.3.4L284 156.8c-.5.3-.9.8-1.2 1.3-.3.5-.4 1.1-.4 1.7 0 .7.2 1.3.6 1.9l1.5 2.3c.3.5.8.9 1.3 1.2.5.3 1.1.4 1.7.4.7 0 1.3-.2 1.9-.6l79.4-51.5c.6-.4 1.1-1 1.4-1.7L411 4.9c.2-.4.3-.9.3-1.3 0-.6-.1-1.1-.3-1.5zM161.2 121.7L65 84.1c-.1-.1-.3-.1-.3-.3L6.5 1.5C6.2 1 5.7.6 5.2.4 4.7.1 4.2 0 3.6 0c-.9 0-1.8.4-2.5 1-.3.3-.6.7-.8 1.1-.2.4-.3.9-.3 1.4 0 .5.1.9.3 1.4l40.8 106.9c.3.7.8 1.3 1.4 1.7l79.4 51.5c.6.4 1.3.6 1.9.6.6 0 1.2-.1 1.7-.4.5-.3 1-.7 1.3-1.2l1.5-2.3c.4-.6.6-1.3.6-1.9 0-.6-.1-1.2-.4-1.7-.3-.5-.7-1-1.2-1.3l-77.5-50.3c-.1-.1-.2-.2-.3-.4L29.4 53.6c-.1-.1-.1-.2-.1-.3 0-.1 0-.2.1-.3l.3-.3c.1-.1.3-.1.5-.1.1 0 .2 0 .3.1.1 0 .2.1.3.3l27.1 38.4c.4.6 1 1 1.6 1.3l98.1 38.3c.4.2.9.2 1.3.2.7 0 1.4-.2 2-.6.6-.4 1.1-1 1.3-1.7l1-2.5c.2-.4.2-.9.2-1.3 0-.7-.2-1.4-.6-2-.3-.7-.9-1.2-1.6-1.4zm99.2-23l.4-.3 37.5-30.9c.3-.3.6-.6.7-.9.2-.3.2-.7.2-1.1 0-.6-.2-1.2-.6-1.7-.4-.5-1-.8-1.6-.9l-45-7.1h-.4c-.7 0-1.4.3-1.9.8L212.4 95c-.5.5-.7 1.2-.7 1.8 0 .7.3 1.3.7 1.8.2.2.5.5.8.6.3.1.7.2 1 .2l44.5-.2c.6.1 1.2-.1 1.7-.5zm-27.5-12.4c-.1 0-.1 0-.2-.1s-.1-.2-.1-.2c0-.1 0-.1.1-.2l20.8-21.5c.1-.1.1-.1.2-.1l24.5 3.9c.1 0 .1 0 .2.1 0 0 .1.1.1.2v.1s0 .1-.1.1L233 86.3h-.1zm23.7 4.8l-18.5.1h-.1s-.1 0-.1-.1v-.2-.1s0-.1.1-.1l34.8-13.5h.1c.1 0 .1 0 .2.1s.1.2.1.2v.1s0 .1-.1.1L256.8 91c-.1 0-.1.1-.2.1z" fill="#00b6a2" /><path d="M288.8 158.7l-1 1 1-1-35.4-35.3c-.8-.8-1.9-1.3-3-1.3h-30c-1 0-2 .3-2.7 1l-4.6 3.8c-.3.2-.6.3-.9.3-.4 0-.8-.2-1-.4-.1-.1-.2-.3-.3-.5-.1-.2-.1-.4-.1-.6V70.2c0-1.2-.5-2.3-1.3-3-.8-.8-1.9-1.3-3-1.3h-1.3c-1.2 0-2.3.5-3 1.3-.8.8-1.3 1.9-1.3 3v55.5c0 .2 0 .4-.1.6-.1.3-.3.5-.6.6-.2.2-.5.2-.8.2-.3 0-.6-.1-.9-.3l-4.6-3.8c-.8-.6-1.7-1-2.7-1h-30c-1.1 0-2.2.5-3 1.3l-35.4 35.4c-.8.8-1.3 1.9-1.3 3v90.9c0 1.2.5 2.4 1.4 3.2l43.2 38.4c.3.3.5.6.5 1l6.2 73.4c.2 2.2 2 3.9 4.3 3.9H234c2.2 0 4.1-1.7 4.3-3.9l6.5-73.2c0-.4.2-.7.5-1l43.4-38.6c.9-.8 1.4-2 1.4-3.2v-91c0-1-.5-2.1-1.3-2.9zm-42.4 118.2l3.8-42.6c0-.2.1-.4.2-.6l27.1-48c.2-.3.4-.5.6-.6.2-.1.4-.2.7-.2.4 0 .8.2 1.1.4.1.1.2.3.3.4.1.2.1.4.1.6v63.1c0 .4-.2.8-.5 1.1L248.9 278c-.3.3-.6.4-1 .4s-.8-.2-1-.4c-.1-.1-.3-.3-.3-.5-.1-.2-.1-.4-.1-.6-.1.1-.1 0-.1 0zM182 361.4l-2-23.4v-.1c0-.4.2-.8.4-1 .3-.3.6-.4 1-.4h14.2c2.2 0 4-1.6 4.3-3.7l4.3-32.7c0-.3.1-.4.2-.6.1-.2.3-.4.5-.5.2-.1.5-.2.8-.2.4 0 .7.1 1 .3.1.1.2.2.3.4.1.2.2.3.2.6l4.3 32.7c.3 2.1 2.1 3.7 4.3 3.7h13.8c.4 0 .8.2 1 .4.3.3.4.6.4 1v.1l-2.1 23.4c-.1.8-.7 1.3-1.5 1.3h-44c-.7 0-1.3-.6-1.4-1.3zm49.8-36.2c-.1.8-.7 1.3-1.5 1.3H222c-.7 0-1.4-.5-1.5-1.3L210 245.6c-.1-.6-.3-1.1-.5-1.6-.4-.7-1-1.3-1.6-1.6-.7-.4-1.4-.5-2.1-.5-1 0-1.9.3-2.7.9-.4.3-.7.7-1 1.2-.3.5-.4 1-.5 1.6L191 325.2c-.1.7-.7 1.3-1.5 1.3h-8.4c-.8 0-1.4-.6-1.5-1.3l-8.7-93.3c-.1-.6-.2-1.2-.5-1.7L132.9 164c-.1-.2-.2-.5-.2-.7 0-.4.1-.8.4-1l29.7-29.7c.3-.3.7-.4 1-.4h24.5c.3 0 .7.1.9.3l13.5 11.1c.8.7 1.8 1 2.7 1 1 0 1.9-.3 2.7-1l13.5-11.1c.3-.2.6-.3.9-.3H247c.4 0 .8.2 1 .4l29.7 29.7c.3.3.4.7.4 1 0 .2-.1.5-.2.7L241 230.1c-.3.5-.5 1.1-.5 1.7l-8.7 93.4zM165 276.8c0 .2 0 .4-.1.6-.1.3-.3.5-.6.6-.2.2-.5.2-.8.2-.3 0-.6-.1-1-.4l-30.7-27.3c-.3-.3-.5-.7-.5-1.1v-63.1c0-.3.1-.5.1-.6.1-.3.3-.5.5-.6.2-.2.5-.2.8-.2.3 0 .5.1.7.2.2.1.4.3.6.6l27.1 47.9c.1.2.2.4.2.6l3.6 42.5c.1 0 .1.1.1.1z" fill="#da5037" /></svg>