<?xml version="1.0" encoding="UTF-8"?>
<svg width="860px" height="513px" viewBox="0 0 860 513" version="1.1" xmlns="http://www.w3.org/2000/svg" xmlns:xlink="http://www.w3.org/1999/xlink">
    <!-- Generator: Sketch 51.3 (57544) - http://www.bohemiancoding.com/sketch -->
    <title>Desktop HD</title>
    <desc>Created with Sketch.</desc>
    <defs></defs>
    <g id="Desktop-HD" stroke="none" stroke-width="1" fill="none" fill-rule="evenodd">
        <g id="Group" transform="translate(0.000000, 255.000000)">
            <path d="M14.7747,12.6507 C14.7127,12.5397 14.6907,12.4427 14.6907,12.3427 C14.6887,12.1857 14.7567,12.0187 14.8707,11.9007 C14.9877,11.7837 15.1227,11.7147 15.3207,11.7127 L296.3067,11.7127 C296.6527,11.7137 296.9347,11.9937 296.9347,12.3397 L296.9347,98.1787 C296.9347,98.5247 296.6527,98.8057 296.3067,98.8067 L15.0447,98.8067 C14.8477,98.8037 14.7127,98.7347 14.5947,98.6177 C14.4807,98.4997 14.4127,98.3337 14.4137,98.1767 C14.4147,98.0807 14.4347,97.9867 14.4897,97.8817 L37.3787,54.9767 C37.5917,54.5777 37.6977,54.1377 37.6977,53.6997 C37.6977,53.2367 37.5797,52.7737 37.3437,52.3587 L36.4367,52.8737 L37.3427,52.3587 L14.7747,12.6507 Z M224.8377,116.3307 C224.9477,116.1127 225.1637,115.9927 225.3927,115.9907 C225.4867,115.9907 225.5787,116.0117 225.6717,116.0577 C289.3967,147.5957 358.6507,163.4047 427.9167,163.4047 L427.9207,163.4047 L427.9277,163.4047 L427.9397,163.4047 C497.2047,163.4047 566.4607,147.5957 630.1857,116.0577 C630.2787,116.0117 630.3707,115.9907 630.4647,115.9907 C630.6937,115.9927 630.9087,116.1127 631.0197,116.3307 C643.6457,141.1117 656.2717,165.8917 668.8997,190.6737 C668.9467,190.7677 668.9677,190.8617 668.9687,190.9587 C668.9667,191.1937 668.8397,191.4187 668.6177,191.5267 C592.8127,229.2147 510.3787,248.0977 427.9277,248.0977 C345.4777,248.0977 263.0437,229.2147 187.2387,191.5267 C187.0177,191.4187 186.8907,191.1947 186.8897,190.9587 C186.8897,190.8617 186.9107,190.7677 186.9587,190.6737 C199.5857,165.8917 212.2117,141.1117 224.8377,116.3307 Z M822.5407,53.2057 L845.4297,96.1087 C845.4847,96.2147 845.5047,96.3087 845.5057,96.4027 C845.5067,96.5607 845.4387,96.7277 845.3237,96.8457 C845.2067,96.9627 845.0707,97.0307 844.8747,97.0327 L563.6117,97.0327 C563.2647,97.0327 562.9837,96.7517 562.9827,96.4047 L562.9827,10.5677 C562.9837,10.2217 563.2647,9.9407 563.6117,9.9397 L844.5987,9.9397 C844.7967,9.9427 844.9317,10.0107 845.0487,10.1277 C845.1627,10.2457 845.2307,10.4137 845.2297,10.5697 C845.2287,10.6697 845.2067,10.7677 845.1457,10.8787 L822.5757,50.5857 C822.3397,51.0007 822.2207,51.4637 822.2207,51.9267 C822.2207,52.3657 822.3267,52.8057 822.5407,53.2057 Z M832.7527,52.3347 C832.7027,52.2417 832.6787,52.1407 832.6787,52.0397 C832.6787,51.9317 832.7057,51.8247 832.7607,51.7287 L831.8547,51.2137 L832.7607,51.7287 L859.5637,4.5747 C859.8047,4.1517 859.9207,3.6857 859.9197,3.2357 C859.9187,2.5197 859.6377,1.8507 859.1577,1.3497 C858.6827,0.8487 857.9807,0.5177 857.2037,0.5197 L556.2777,0.5197 C554.7777,0.5207 553.5657,1.7337 553.5647,3.2337 L553.5647,103.7387 C553.5647,105.2377 554.7777,106.4527 556.2777,106.4527 L628.3997,106.4527 C565.3307,138.1347 496.6337,153.9847 427.9277,153.9857 C361.4157,153.9847 294.9157,139.1157 233.5177,109.4237 C233.3657,109.3487 233.2957,109.2717 233.2427,109.1867 C233.1917,109.1017 233.1627,108.9967 233.1627,108.8787 C233.1607,108.7077 233.2317,108.5247 233.3367,108.4117 C233.4447,108.3007 233.5517,108.2327 233.7947,108.2257 L303.6407,108.2257 C305.1397,108.2257 306.3537,107.0117 306.3547,105.5127 L306.3547,5.0057 C306.3537,3.5067 305.1397,2.2937 303.6407,2.2927 L2.7167,2.2927 C1.9397,2.2907 1.2377,2.6217 0.7617,3.1227 C0.2827,3.6237 0.0017,4.2927 -0.0003,5.0087 C-0.0003,5.4587 0.1157,5.9247 0.3567,6.3477 L27.1577,53.5017 C27.2127,53.5977 27.2397,53.7037 27.2397,53.8117 C27.2397,53.9137 27.2157,54.0147 27.1657,54.1087 L27.1667,54.1077 L0.4247,104.2337 C0.2077,104.6407 0.1027,105.0827 0.1037,105.5107 C0.1047,106.2287 0.3867,106.8987 0.8667,107.3987 C1.3437,107.8987 2.0447,108.2287 2.8197,108.2257 L218.3957,108.2257 C204.3007,135.8897 190.2047,163.5537 176.1077,191.2197 L175.2017,192.9977 C175.0027,193.3897 174.9057,193.8147 174.9057,194.2287 C174.9047,195.2147 175.4487,196.1677 176.3877,196.6487 L178.1667,197.5547 C256.6207,237.5277 342.2757,257.5177 427.9277,257.5177 C513.5797,257.5177 599.2357,237.5277 677.6917,197.5547 L679.4697,196.6487 C680.4087,196.1687 680.9527,195.2157 680.9517,194.2297 C680.9517,193.8147 680.8557,193.3897 680.6547,192.9977 L679.7497,191.2197 C665.5057,163.2687 651.2657,135.3177 637.0247,107.3667 C636.9737,107.2647 636.9537,107.1737 636.9537,107.0817 C636.9527,106.9247 637.0207,106.7597 637.1347,106.6417 C637.2517,106.5247 637.3887,106.4557 637.5847,106.4527 L857.1007,106.4527 C857.8757,106.4557 858.5767,106.1247 859.0537,105.6247 C859.5317,105.1247 859.8157,104.4547 859.8167,103.7367 C859.8167,103.3107 859.7117,102.8677 859.4947,102.4627 L832.7527,52.3347 Z" id="Fill-5" fill="#D3BA98"></path>
            <path d="M753.3904,33.8665 C752.8384,33.3115 752.0614,32.9775 751.2244,32.9795 L734.8934,32.9795 C734.0704,32.9805 733.3134,33.3155 732.7584,33.8585 C732.2034,34.3995 731.8394,35.1745 731.8404,36.0335 C731.8394,36.8925 732.2034,37.6665 732.7584,38.2065 C733.3134,38.7495 734.0704,39.0845 734.8934,39.0855 L740.0054,39.0855 L740.0054,72.2105 C740.0044,73.0705 740.3694,73.8445 740.9234,74.3855 C741.4794,74.9275 742.2364,75.2625 743.0584,75.2635 C743.8954,75.2645 744.6724,74.9315 745.2244,74.3775 C745.7794,73.8255 746.1134,73.0485 746.1114,72.2105 L746.1114,39.0855 L751.2244,39.0855 C752.0614,39.0875 752.8384,38.7535 753.3904,38.1995 C753.9444,37.6475 754.2784,36.8705 754.2774,36.0335 C754.2784,35.1955 753.9454,34.4185 753.3904,33.8665 Z M703.9304,46.4325 C703.1374,45.5895 702.6934,44.5185 702.6914,43.3265 C702.6914,43.2065 702.6964,43.0845 702.7054,42.9605 C702.8104,41.6685 703.4234,40.5085 704.4274,39.7555 C705.2064,39.1715 706.1774,38.8505 707.1634,38.8505 C707.4614,38.8505 707.7604,38.8805 708.0564,38.9395 C709.3414,39.2005 710.3944,39.9505 711.0694,41.0855 L711.0714,41.0835 C711.6204,42.0655 712.6414,42.6145 713.6994,42.6165 C714.1984,42.6175 714.7124,42.4895 715.1774,42.2165 L715.1784,42.2175 C715.1834,42.2145 715.1874,42.2115 715.1914,42.2085 C715.1964,42.2065 715.2004,42.2045 715.2044,42.2025 L715.2034,42.2005 C716.1944,41.6325 716.7454,40.5985 716.7434,39.5545 C716.7434,39.0325 716.6054,38.4995 716.3234,38.0235 L716.3244,38.0225 C716.3224,38.0205 716.3204,38.0175 716.3184,38.0145 C716.3174,38.0125 716.3164,38.0105 716.3154,38.0085 L716.3144,38.0095 C714.7804,35.3675 712.2074,33.5635 709.2954,32.9405 L709.2904,32.9395 C708.5934,32.7935 707.8894,32.7225 707.1914,32.7225 C704.8764,32.7235 702.6174,33.4925 700.7924,34.8815 C700.7904,34.8825 700.7894,34.8835 700.7874,34.8855 C700.7864,34.8865 700.7844,34.8875 700.7814,34.8895 L700.7824,34.8905 C698.3534,36.6995 696.8244,39.4785 696.6094,42.5315 L696.6074,42.5315 L696.6074,42.5455 C696.6064,42.5495 696.6064,42.5535 696.6054,42.5565 L696.6064,42.5575 C696.5784,42.8555 696.5654,43.1535 696.5654,43.4495 C696.5664,46.1535 697.6584,48.7615 699.5354,50.7015 L699.5374,50.7045 L709.5894,61.0085 L709.5954,61.0145 C710.4684,61.8835 710.9424,63.1225 710.9414,64.3515 C710.9414,64.4745 710.9364,64.5975 710.9274,64.7205 L710.9264,64.7225 C710.8184,66.1325 710.1634,67.3345 709.0294,68.1645 L709.0214,68.1705 L709.0114,68.1785 C708.1824,68.8095 707.1664,69.1405 706.1254,69.1405 C705.8154,69.1405 705.5024,69.1115 705.1924,69.0515 C703.8494,68.7945 702.6644,67.9645 702.0084,66.7995 L702.0094,66.8005 C701.4434,65.7935 700.4004,65.2335 699.3464,65.2365 C698.8194,65.2365 698.2814,65.3755 697.8004,65.6635 C696.8324,66.2415 696.2984,67.2785 696.3024,68.3265 C696.3024,68.8215 696.4174,69.3225 696.6514,69.7875 L696.6664,69.8205 L696.6854,69.8515 C698.2784,72.5535 700.9184,74.4305 703.9694,75.0545 C704.6754,75.1995 705.3884,75.2695 706.0974,75.2695 C708.4694,75.2695 710.7984,74.4845 712.7174,73.0455 C715.2234,71.1665 716.7504,68.3125 717.0254,65.2055 L717.0264,65.1935 L717.0274,65.1825 C717.0434,64.9345 717.0514,64.6875 717.0514,64.4415 C717.0514,61.5855 715.9554,58.8365 713.9714,56.7885 L703.9304,46.4325 Z M677.7344,39.0855 C678.5724,39.0875 679.3484,38.7535 679.9004,38.1995 C680.4544,37.6475 680.7874,36.8705 680.7864,36.0335 C680.7874,35.1955 680.4544,34.4185 679.9004,33.8665 C679.3484,33.3115 678.5724,32.9775 677.7344,32.9795 L665.1724,32.9795 C664.3344,32.9775 663.5574,33.3115 663.0054,33.8665 C662.4514,34.4185 662.1184,35.1955 662.1194,36.0335 L662.1194,71.9595 C662.1184,72.7975 662.4514,73.5745 663.0054,74.1265 C663.5584,74.6805 664.3344,75.0135 665.1724,75.0125 L677.7344,75.0125 C678.5714,75.0135 679.3484,74.6805 679.9004,74.1265 C680.4544,73.5745 680.7874,72.7975 680.7864,71.9595 C680.7874,71.1225 680.4544,70.3455 679.9004,69.7935 C679.3484,69.2395 678.5714,68.9055 677.7344,68.9075 L668.2244,68.9075 L668.2244,56.4205 L676.4774,56.4205 C677.3154,56.4225 678.0924,56.0885 678.6444,55.5345 C679.1994,54.9825 679.5324,54.2055 679.5314,53.3685 C679.5324,52.5315 679.1994,51.7535 678.6444,51.2015 C678.0924,50.6475 677.3154,50.3135 676.4774,50.3145 L668.2244,50.3145 L668.2244,39.0855 L677.7344,39.0855 Z M642.6704,32.8195 C642.4364,32.7635 642.1974,32.7365 641.9604,32.7365 C641.2804,32.7365 640.6234,32.9655 640.0994,33.3825 C639.5784,33.7935 639.1934,34.3955 639.0344,35.0955 L639.0324,35.0955 C639.0324,35.0955 635.6114,49.1125 633.1904,59.2145 C632.1494,54.9205 630.9404,49.9195 629.8954,45.5865 C629.1884,42.6585 628.5564,40.0355 628.1014,38.1465 C627.6454,36.2565 627.3684,35.1015 627.3674,35.0975 L627.3644,35.0855 L627.3614,35.0735 C627.1844,34.4085 626.8164,33.8175 626.2974,33.3945 C625.7804,32.9705 625.1104,32.7265 624.4064,32.7285 C623.7034,32.7275 623.0314,32.9645 622.5004,33.3875 C621.9794,33.8005 621.5974,34.4015 621.4494,35.0955 L621.4464,35.0955 C621.4464,35.0955 618.0254,49.1125 615.6034,59.2145 C614.5624,54.9215 613.3544,49.9195 612.3084,45.5865 C611.6014,42.6585 610.9694,40.0365 610.5144,38.1465 C610.0594,36.2565 609.7814,35.1015 609.7814,35.0975 L609.7794,35.0985 C609.6164,34.3805 609.2054,33.7765 608.6724,33.3705 C608.1344,32.9605 607.4754,32.7375 606.7914,32.7365 C606.5544,32.7365 606.3154,32.7635 606.0784,32.8205 L606.0774,32.8205 C605.3854,32.9815 604.7944,33.3815 604.3944,33.9115 C603.9934,34.4425 603.7744,35.1015 603.7744,35.7875 C603.7744,36.0265 603.8004,36.2695 603.8544,36.5105 L603.8564,36.5195 L612.6524,72.9575 L612.6544,72.9575 C612.8064,73.6395 613.1994,74.2215 613.7184,74.6225 C614.2464,75.0295 614.9094,75.2635 615.6134,75.2635 C616.3164,75.2645 616.9794,75.0235 617.4924,74.6155 C618.0074,74.2075 618.3794,73.6405 618.5624,72.9995 L618.5694,72.9775 L618.5744,72.9565 C618.5754,72.9535 618.8524,71.7945 619.3084,69.8985 C620.4374,65.1965 622.6514,55.9855 624.3964,48.7815 C626.8184,58.8955 630.2394,72.9585 630.2394,72.9595 L630.2414,72.9595 C630.3944,73.6405 630.7864,74.2215 631.3054,74.6215 C631.8324,75.0295 632.4954,75.2635 633.1994,75.2635 C633.9034,75.2645 634.5654,75.0235 635.0784,74.6155 C635.5934,74.2075 635.9664,73.6405 636.1494,72.9995 L636.1554,72.9785 L644.9544,36.5205 L644.9574,36.5095 C645.0084,36.2795 645.0344,36.0475 645.0344,35.8175 C645.0364,34.3985 644.0674,33.1475 642.6704,32.8195 Z M252.8444,32.7285 C252.0214,32.7295 251.2644,33.0645 250.7104,33.6075 C250.1554,34.1485 249.7914,34.9225 249.7924,35.7825 L249.7924,50.3145 L240.8234,50.3145 L240.8234,35.7825 C240.8254,34.9445 240.4914,34.1675 239.9374,33.6155 C239.3854,33.0605 238.6084,32.7265 237.7704,32.7285 C236.9484,32.7295 236.1904,33.0645 235.6354,33.6075 C235.0804,34.1485 234.7174,34.9225 234.7174,35.7825 L234.7174,72.2105 C234.7174,73.0705 235.0804,73.8445 235.6364,74.3855 C236.1914,74.9275 236.9484,75.2625 237.7704,75.2635 C238.6074,75.2645 239.3854,74.9315 239.9364,74.3775 C240.4914,73.8255 240.8254,73.0485 240.8234,72.2105 L240.8234,56.4205 L249.7924,56.4205 L249.7924,72.2105 C249.7914,73.0705 250.1554,73.8445 250.7104,74.3855 C251.2654,74.9275 252.0224,75.2625 252.8444,75.2635 C253.6824,75.2645 254.4584,74.9315 255.0114,74.3775 C255.5654,73.8255 255.8994,73.0485 255.8974,72.2105 L255.8974,35.7825 C255.8994,34.9445 255.5654,34.1675 255.0114,33.6155 C254.4594,33.0605 253.6824,32.7265 252.8444,32.7285 Z M215.1584,32.9795 L198.8274,32.9795 C198.0044,32.9805 197.2464,33.3155 196.6924,33.8585 C196.1374,34.3995 195.7734,35.1745 195.7744,36.0335 C195.7734,36.8925 196.1374,37.6665 196.6924,38.2065 C197.2474,38.7495 198.0044,39.0845 198.8274,39.0855 L203.9394,39.0855 L203.9394,72.2105 C203.9384,73.0705 204.3024,73.8445 204.8574,74.3855 C205.4124,74.9275 206.1704,75.2625 206.9924,75.2635 C207.8294,75.2645 208.6064,74.9315 209.1584,74.3775 C209.7134,73.8255 210.0464,73.0485 210.0444,72.2105 L210.0444,39.0855 L215.1584,39.0855 C215.9954,39.0875 216.7724,38.7535 217.3244,38.1995 C217.8784,37.6475 218.2114,36.8705 218.2104,36.0335 C218.2114,35.1955 217.8784,34.4185 217.3244,33.8665 C216.7724,33.3115 215.9954,32.9775 215.1584,32.9795 Z M176.7164,32.7285 C175.8794,32.7265 175.1024,33.0605 174.5504,33.6155 C173.9954,34.1675 173.6624,34.9445 173.6644,35.7825 L173.6644,64.6735 C173.6634,65.9255 173.1574,67.0375 172.3394,67.8515 C171.5204,68.6635 170.4014,69.1585 169.1794,69.1585 C167.9194,69.1575 166.8084,68.6615 165.9994,67.8545 C165.1924,67.0455 164.6964,65.9335 164.6954,64.6735 L164.6954,35.7825 C164.6964,34.9225 164.3324,34.1485 163.7774,33.6075 C163.2224,33.0645 162.4654,32.7295 161.6424,32.7285 C160.8044,32.7265 160.0274,33.0605 159.4754,33.6155 C158.9214,34.1675 158.5884,34.9445 158.5894,35.7825 L158.5894,64.6735 C158.5904,70.5255 163.3284,75.2635 169.1794,75.2635 C174.9714,75.2595 179.7644,70.5345 179.7694,64.6735 L179.7694,35.7825 C179.7704,34.9225 179.4074,34.1485 178.8514,33.6075 C178.2974,33.0645 177.5394,32.7295 176.7164,32.7285 Z M134.7214,64.6735 C134.7214,65.9255 134.2144,67.0375 133.3964,67.8515 C132.5774,68.6635 131.4584,69.1585 130.2364,69.1585 C128.9764,69.1575 127.8664,68.6615 127.0564,67.8545 C126.2494,67.0455 125.7534,65.9335 125.7524,64.6735 L125.7524,43.3185 C125.7524,42.0955 126.2474,40.9775 127.0594,40.1585 C127.8724,39.3415 128.9844,38.8355 130.2364,38.8345 C131.4514,38.8345 132.5704,39.3405 133.3934,40.1615 C134.2154,40.9845 134.7224,42.1045 134.7214,43.3185 L134.7214,64.6735 Z M130.2364,32.7285 C124.3854,32.7285 119.6474,37.4675 119.6474,43.3185 L119.6474,64.6735 C119.6474,70.5255 124.3854,75.2635 130.2364,75.2635 C136.0884,75.2635 140.8274,70.5255 140.8274,64.6735 L140.8274,43.3185 C140.8264,37.4675 136.0884,32.7285 130.2364,32.7285 Z M100.0184,56.7875 L89.9784,46.4325 C89.1844,45.5895 88.7414,44.5185 88.7384,43.3265 C88.7384,43.2055 88.7434,43.0845 88.7524,42.9615 C88.8574,41.6685 89.4704,40.5085 90.4744,39.7555 C91.2544,39.1715 92.2254,38.8505 93.2114,38.8505 C93.5094,38.8505 93.8074,38.8805 94.1034,38.9395 C95.3894,39.2005 96.4424,39.9505 97.1164,41.0855 L97.1184,41.0835 C97.6684,42.0655 98.6894,42.6145 99.7464,42.6165 C100.2454,42.6175 100.7604,42.4895 101.2254,42.2165 L101.2254,42.2175 C101.2304,42.2145 101.2344,42.2115 101.2394,42.2085 C101.2434,42.2065 101.2474,42.2045 101.2524,42.2025 L101.2514,42.2005 C102.2414,41.6325 102.7934,40.5985 102.7904,39.5545 C102.7904,39.0325 102.6534,38.4995 102.3704,38.0235 L102.3704,38.0225 C102.3694,38.0205 102.3674,38.0175 102.3664,38.0145 C102.3644,38.0125 102.3644,38.0105 102.3624,38.0085 L102.3624,38.0095 C100.8284,35.3675 98.2554,33.5635 95.3434,32.9405 L95.3384,32.9395 C94.6414,32.7935 93.9374,32.7225 93.2384,32.7225 C90.9244,32.7235 88.6644,33.4925 86.8404,34.8815 C86.8384,34.8825 86.8374,34.8835 86.8354,34.8855 C86.8334,34.8865 86.8304,34.8875 86.8284,34.8895 L86.8294,34.8905 C84.4004,36.6995 82.8714,39.4785 82.6564,42.5315 L82.6554,42.5315 C82.6544,42.5365 82.6554,42.5405 82.6544,42.5455 C82.6544,42.5495 82.6534,42.5535 82.6534,42.5565 L82.6544,42.5575 C82.6264,42.8555 82.6124,43.1535 82.6124,43.4495 C82.6144,46.1535 83.7054,48.7615 85.5824,50.7015 L85.5844,50.7045 L95.6384,61.0095 L95.6434,61.0145 C96.5154,61.8835 96.9904,63.1225 96.9884,64.3515 C96.9884,64.4745 96.9844,64.5975 96.9744,64.7205 L96.9744,64.7215 L96.9744,64.7225 C96.8654,66.1325 96.2104,67.3345 95.0774,68.1645 L95.0674,68.1715 L95.0584,68.1785 C94.2304,68.8095 93.2144,69.1405 92.1734,69.1405 C91.8634,69.1405 91.5504,69.1115 91.2404,69.0515 L91.2394,69.0515 C89.8974,68.7945 88.7124,67.9645 88.0564,66.7995 L88.0574,66.8005 C87.4914,65.7935 86.4474,65.2335 85.3944,65.2365 C84.8664,65.2365 84.3284,65.3755 83.8484,65.6635 C82.8804,66.2415 82.3464,67.2785 82.3504,68.3265 C82.3504,68.8215 82.4654,69.3225 82.6984,69.7875 L82.7144,69.8195 L82.7324,69.8515 C84.3254,72.5535 86.9664,74.4305 90.0164,75.0545 L90.0174,75.0545 C90.7234,75.1995 91.4354,75.2695 92.1444,75.2695 C94.5164,75.2695 96.8454,74.4845 98.7654,73.0455 C101.2704,71.1665 102.7984,68.3125 103.0734,65.2055 L103.0744,65.1945 L103.0744,65.1825 C103.0914,64.9345 103.0994,64.6875 103.0994,64.4415 C103.0994,61.5855 102.0034,58.8365 100.0194,56.7885 L100.0184,56.7875 Z M90.0734,75.0665 L90.0174,75.0545 L90.0164,75.0545 L90.0734,75.0665 Z" id="Fill-8" fill="#FFFFFF"></path>
            <path d="M599.7742,197.4871 C596.5482,186.9261 593.3232,176.3641 590.0972,165.8011 C591.7962,165.2791 593.4962,164.7531 595.1922,164.2131 C596.5032,163.8011 597.3842,162.6101 597.3802,161.2921 C597.3802,160.9781 597.3312,160.6601 597.2312,160.3501 C596.8182,159.0561 595.6112,158.2311 594.3212,158.2401 C593.9952,158.2401 593.6632,158.2911 593.3392,158.3941 L593.6562,159.3871 L593.3392,158.3941 C588.0222,160.0881 582.6852,161.6941 577.3302,163.2161 C576.0002,163.6011 575.0692,164.7991 575.0602,166.1911 C575.0602,166.4571 575.0962,166.7281 575.1702,166.9961 C575.3612,167.6831 575.7872,168.2481 576.3172,168.6251 C576.8482,169.0041 577.4852,169.2081 578.1452,169.2091 C578.4282,169.2091 578.7162,169.1701 578.9992,169.0901 C580.7062,168.6051 582.4112,168.1061 584.1142,167.6031 C587.2572,178.1911 590.4022,188.7771 593.5452,199.3641 C593.7462,200.0461 594.1902,200.5971 594.7292,200.9561 C595.2692,201.3151 595.9062,201.5011 596.5602,201.5021 C596.8862,201.5021 597.2172,201.4551 597.5432,201.3571 C598.2322,201.1491 598.8212,200.7511 599.2392,200.2251 C599.6562,199.7011 599.9052,199.0441 599.9042,198.3511 C599.9042,198.0641 599.8622,197.7721 599.7742,197.4871 Z M567.3442,199.2001 L567.3422,199.1901 C566.8132,196.0831 564.9072,193.3981 562.1692,191.7821 C557.8992,189.2611 553.6882,186.6921 549.5382,184.0761 C548.4462,183.3621 547.7442,182.2971 547.5622,180.9771 C547.5372,180.7791 547.5232,180.5821 547.5232,180.3841 C547.5242,179.3141 547.8982,178.2861 548.6232,177.4661 C549.4872,176.4881 550.7792,175.8751 552.1342,175.8301 L552.1362,175.8301 L552.3032,175.8271 C553.6032,175.8301 554.7802,176.3171 555.6822,177.2221 L555.6852,177.2191 C556.2842,177.8551 557.1002,178.1641 557.9082,178.1641 C558.6492,178.1651 559.4162,177.9011 560.0142,177.3411 L560.0162,177.3421 C560.0202,177.3391 560.0222,177.3351 560.0262,177.3321 C560.0302,177.3281 560.0352,177.3261 560.0382,177.3221 L560.0372,177.3201 C560.6942,176.7161 561.0402,175.8891 561.0382,175.0731 C561.0402,174.3091 560.7392,173.5431 560.1622,172.9681 L560.1632,172.9671 C560.1612,172.9661 560.1582,172.9631 560.1552,172.9611 C560.1542,172.9601 560.1532,172.9581 560.1522,172.9571 L560.1512,172.9571 C558.0452,170.8271 555.1782,169.6991 552.2412,169.6991 C552.1622,169.6991 552.0842,169.7001 552.0052,169.7021 L552.0012,169.7021 L551.9992,169.7021 L552.0012,169.7021 C548.8862,169.7841 545.9742,171.2071 543.9872,173.4741 L543.9862,173.4731 C543.9852,173.4751 543.9832,173.4771 543.9822,173.4791 L543.9772,173.4841 L543.9782,173.4841 C542.2422,175.4271 541.2722,177.9181 541.2722,180.4971 C541.2722,180.9451 541.3022,181.3961 541.3622,181.8471 L541.3612,181.8471 C541.3622,181.8501 541.3622,181.8531 541.3632,181.8551 C541.3642,181.8621 541.3642,181.8681 541.3652,181.8741 L541.3662,181.8741 C541.7062,184.8931 543.4592,187.5891 546.0492,189.2371 L546.0532,189.2391 C550.2222,191.8661 554.4502,194.4461 558.7372,196.9781 L558.7422,196.9811 L558.7482,196.9841 C559.9822,197.6911 560.7872,198.9261 560.9842,200.2351 L560.9842,200.2381 C561.0202,200.4691 561.0382,200.7001 561.0382,200.9271 C561.0352,202.0481 560.6212,203.1191 559.7622,204.0391 L559.7552,204.0471 L559.7472,204.0551 C558.7812,205.1351 557.3132,205.8091 555.7772,205.8751 C555.6892,205.8791 555.6022,205.8811 555.5162,205.8811 C554.0802,205.8831 552.7292,205.3311 551.8502,204.4041 C551.2132,203.7351 550.3482,203.4161 549.5062,203.4171 C548.7332,203.4171 547.9532,203.6811 547.3282,204.2191 C546.6212,204.8261 546.2312,205.6891 546.2342,206.5591 C546.2332,207.2691 546.4902,207.9811 546.9782,208.5541 L547.0032,208.5841 L547.0292,208.6101 C549.1892,210.8141 552.2162,212.0241 555.4182,212.0241 C555.5592,212.0241 555.7012,212.0211 555.8432,212.0161 C559.2192,211.9011 562.4192,210.3941 564.6302,207.9601 C566.4882,205.9171 567.4602,203.3541 567.4592,200.7501 C567.4592,200.2381 567.4202,199.7251 567.3462,199.2151 L567.3442,199.2001 Z M529.1022,212.0921 C528.5422,211.6541 527.8362,211.4161 527.0952,211.4171 C526.9002,211.4171 526.7032,211.4321 526.5042,211.4661 C523.0842,212.0441 519.6592,212.5861 516.2302,213.1001 C515.6212,208.9821 515.0102,204.8661 514.4012,200.7491 C517.3072,200.3121 520.2112,199.8571 523.1122,199.3751 C523.8702,199.2491 524.5392,198.8771 525.0142,198.3401 C525.4912,197.8051 525.7752,197.0991 525.7742,196.3491 C525.7752,196.1791 525.7602,196.0081 525.7312,195.8361 C525.6052,195.0901 525.2072,194.4391 524.6562,193.9971 C524.1052,193.5511 523.4032,193.3041 522.6662,193.3041 C522.4812,193.3041 522.2952,193.3201 522.1092,193.3511 C519.2452,193.8281 516.3772,194.2771 513.5052,194.7091 C512.9582,191.0061 512.4102,187.3021 511.8612,183.6001 C515.0902,183.1151 518.3182,182.6051 521.5422,182.0611 C522.2872,181.9361 522.9422,181.5601 523.4022,181.0251 C523.8632,180.4911 524.1322,179.7951 524.1322,179.0581 C524.1322,178.8831 524.1172,178.7041 524.0862,178.5271 C523.9602,177.7881 523.5722,177.1411 523.0312,176.6951 C522.4912,176.2471 521.7962,175.9931 521.0652,175.9941 C520.8862,175.9941 520.7062,176.0091 520.5252,176.0401 C516.3282,176.7481 512.1252,177.4061 507.9172,178.0121 C507.1562,178.1211 506.4832,178.4931 506.0092,179.0331 C505.5342,179.5711 505.2542,180.2811 505.2552,181.0351 C505.2552,181.1781 505.2652,181.3241 505.2862,181.4681 L506.3192,181.3251 L505.2862,181.4691 C506.9502,193.3291 508.6132,205.1871 510.2772,217.0481 C510.3822,217.8171 510.7892,218.4921 511.3552,218.9451 C511.9212,219.4021 512.6442,219.6521 513.4062,219.6521 C513.5742,219.6521 513.7442,219.6391 513.9152,219.6151 C518.4572,218.9601 522.9932,218.2511 527.5212,217.4861 C528.2912,217.3561 528.9692,216.9861 529.4592,216.4491 C529.9482,215.9141 530.2472,215.2011 530.2462,214.4391 C530.2462,214.2701 530.2312,214.0991 530.2022,213.9281 C530.0732,213.1781 529.6632,212.5291 529.1022,212.0921 Z M487.9732,198.9191 C487.4112,198.4331 486.6732,198.1581 485.8912,198.1591 C485.7822,198.1591 485.6702,198.1641 485.5602,198.1751 C482.6762,198.4581 479.7912,198.7141 476.9042,198.9501 C476.6052,195.2181 476.3062,191.4871 476.0072,187.7571 C479.2562,187.4901 482.5032,187.1981 485.7482,186.8721 C486.5352,186.7951 487.2402,186.4351 487.7402,185.8921 C488.2402,185.3511 488.5382,184.6221 488.5372,183.8441 C488.5372,183.7371 488.5312,183.6281 488.5192,183.5171 C488.4392,182.7351 488.0672,182.0371 487.5162,181.5501 C486.9662,181.0621 486.2382,180.7791 485.4642,180.7801 C485.3562,180.7801 485.2482,180.7861 485.1382,180.7971 C480.9132,181.2201 476.6832,181.5941 472.4502,181.9171 C471.6632,181.9781 470.9552,182.3351 470.4392,182.8741 C469.9232,183.4121 469.5902,184.1541 469.5902,184.9711 C469.5902,185.0441 469.5932,185.1161 469.5982,185.1881 C470.4622,197.1331 471.3272,209.0771 472.1922,221.0201 L472.1922,221.0211 C472.2522,221.8621 472.6762,222.5891 473.2602,223.0721 C473.8462,223.5591 474.5952,223.8371 475.3902,223.8381 C475.4732,223.8381 475.5592,223.8351 475.6452,223.8281 C476.4682,223.7651 477.2142,223.4241 477.7582,222.8821 C478.3032,222.3421 478.6442,221.5881 478.6422,220.7721 C478.6422,220.6931 478.6392,220.6121 478.6322,220.5301 C478.2192,215.3661 477.8052,210.2021 477.3922,205.0371 C480.3142,204.7981 483.2362,204.5381 486.1552,204.2531 C486.9542,204.1741 487.6722,203.8211 488.1882,203.2781 C488.7052,202.7381 489.0192,202.0011 489.0182,201.2111 C489.0182,201.1071 489.0122,201.0031 489.0022,200.8971 C488.9222,200.1061 488.5372,199.4021 487.9732,198.9191 Z M420.3252,193.9191 L420.2562,197.4361 L420.2562,197.4381 C420.2332,198.6571 419.7212,199.7301 418.8842,200.5201 C418.0462,201.3071 416.8882,201.7981 415.5762,201.7991 L415.4162,201.7961 C413.8332,201.7481 412.2492,201.6891 410.6662,201.6281 C410.8352,197.4681 411.0052,193.3101 411.1752,189.1511 C412.7142,189.2111 414.2532,189.2691 415.7942,189.3151 C418.3492,189.3911 420.3312,191.4541 420.3262,193.8421 L420.3252,193.9211 L420.3252,193.9191 Z M415.9792,183.2121 C413.4342,183.1351 410.8902,183.0401 408.3472,182.9261 L408.3512,182.9261 L408.2112,182.9241 C407.4142,182.9241 406.6732,183.2301 406.1122,183.7421 C405.5512,184.2521 405.1632,184.9921 405.1232,185.8311 C404.5402,197.8771 403.9562,209.9221 403.3722,221.9661 L403.3682,222.1071 C403.3682,222.9651 403.7522,223.7311 404.3172,224.2631 C404.8842,224.7981 405.6392,225.1311 406.4632,225.1681 L406.6242,225.1721 C407.4562,225.1721 408.2352,224.8801 408.8202,224.3621 C409.4062,223.8481 409.7942,223.0911 409.8252,222.2541 C410.0232,217.4121 410.2202,212.5701 410.4172,207.7271 C411.6532,207.7761 412.8882,207.8211 414.1242,207.8601 C416.0112,213.1311 417.9512,218.3911 419.9532,223.6411 L419.9542,223.6401 C420.1942,224.2931 420.6482,224.8071 421.1842,225.1451 C421.7262,225.4871 422.3542,225.6651 422.9972,225.6661 C423.3372,225.6661 423.6832,225.6131 424.0212,225.5061 L424.0212,225.5071 C424.0242,225.5061 424.0262,225.5041 424.0302,225.5031 C424.0332,225.5021 424.0362,225.5021 424.0392,225.5011 L424.0382,225.5001 C425.3682,225.0851 426.2212,223.8931 426.2182,222.6211 C426.2182,222.2691 426.1532,221.9111 426.0182,221.5701 L426.0202,221.5741 C424.1132,216.6701 422.2612,211.7561 420.4552,206.8341 C422.0742,206.0591 423.4692,204.9211 424.5122,203.5121 C425.7552,201.8321 426.4982,199.7671 426.5212,197.5341 C426.5352,196.3631 426.5502,195.1901 426.5632,194.0171 L426.5642,194.0121 L426.5642,193.9221 C426.5642,191.0161 425.3772,188.3731 423.4642,186.4491 C421.5522,184.5231 418.9052,183.3001 415.9792,183.2121 Z M384.9712,181.3671 C380.7422,180.9911 376.5162,180.5641 372.2942,180.0871 L372.2962,180.0871 C372.1722,180.0731 372.0492,180.0661 371.9292,180.0661 C371.1632,180.0651 370.4402,180.3411 369.8932,180.8221 C369.3432,181.3001 368.9672,181.9901 368.8772,182.7641 L369.9132,182.8861 L368.8772,182.7651 L364.7032,218.4491 L364.7032,218.4471 C364.6892,218.5651 364.6822,218.6821 364.6822,218.7991 C364.6812,219.5911 365.0042,220.3301 365.5262,220.8681 C366.0482,221.4091 366.7682,221.7621 367.5702,221.8531 C372.1262,222.3681 376.6862,222.8291 381.2492,223.2341 C381.3562,223.2441 381.4612,223.2481 381.5662,223.2481 C382.3672,223.2491 383.1212,222.9761 383.6982,222.4861 C384.2752,221.9991 384.6712,221.2791 384.7372,220.4711 C384.7452,220.3851 384.7482,220.3011 384.7482,220.2161 C384.7502,219.4071 384.4152,218.6561 383.8782,218.1151 C383.3422,217.5721 382.6052,217.2251 381.7902,217.1541 C378.3432,216.8471 374.8992,216.5051 371.4572,216.1351 C371.9092,211.9991 372.3612,207.8611 372.8132,203.7231 C375.7312,204.0371 378.6492,204.3301 381.5702,204.5961 C381.6752,204.6061 381.7792,204.6111 381.8832,204.6111 C382.6732,204.6111 383.4182,204.3311 383.9812,203.8381 C384.5462,203.3471 384.9282,202.6331 384.9952,201.8351 C385.0022,201.7461 385.0062,201.6571 385.0062,201.5681 C385.0082,200.7711 384.6912,200.0281 384.1702,199.4861 C383.6512,198.9411 382.9272,198.5891 382.1252,198.5161 C379.2402,198.2531 376.3572,197.9631 373.4762,197.6541 C373.8822,193.9321 374.2882,190.2111 374.6952,186.4901 C377.9382,186.8381 381.1832,187.1611 384.4302,187.4491 C384.5282,187.4581 384.6242,187.4621 384.7212,187.4621 C385.5062,187.4631 386.2442,187.1741 386.7952,186.6741 C387.3482,186.1781 387.7162,185.4661 387.7812,184.6741 C387.7892,184.5851 387.7932,184.4961 387.7922,184.4081 C387.7942,183.6211 387.4912,182.8831 386.9832,182.3401 C386.4782,181.7941 385.7642,181.4361 384.9712,181.3671 Z M343.0152,186.6891 C341.8872,193.5481 340.7592,200.4061 339.6312,207.2641 L339.6312,207.2661 C339.4552,208.3411 338.8932,209.2421 338.0712,209.8961 C337.2502,210.5481 336.1692,210.9381 334.9812,210.9381 C334.6672,210.9381 334.3452,210.9111 334.0192,210.8531 C332.3912,210.5691 330.7652,210.2711 329.1392,209.9711 C330.9602,200.1991 332.7802,190.4271 334.6002,180.6551 C336.1232,180.9351 337.6452,181.2131 339.1692,181.4801 L339.3492,180.4541 L339.1692,181.4801 C341.4792,181.8831 343.0752,183.8601 343.0712,185.9921 C343.0712,186.2221 343.0532,186.4551 343.0152,186.6891 Z M340.2242,175.4661 L340.0442,176.4931 L340.2242,175.4661 C337.7082,175.0241 335.1942,174.5651 332.6832,174.0881 C332.4812,174.0491 332.2772,174.0301 332.0772,174.0301 C331.3592,174.0291 330.6752,174.2741 330.1382,174.7111 C329.6002,175.1441 329.2092,175.7741 329.0692,176.5001 C326.7852,188.2571 324.5022,200.0121 322.2182,211.7671 C322.1812,211.9571 322.1632,212.1481 322.1632,212.3371 C322.1622,213.0861 322.4522,213.7901 322.9292,214.3241 C323.4062,214.8601 324.0702,215.2361 324.8272,215.3801 C327.5372,215.8941 330.2492,216.3901 332.9642,216.8671 C333.6812,216.9931 334.3942,217.0531 335.0952,217.0531 C337.7852,217.0531 340.2952,216.1571 342.2412,214.6111 C344.1862,213.0671 345.5682,210.8571 345.9622,208.2771 C347.0382,201.4111 348.1132,194.5441 349.1882,187.6781 L349.1892,187.6741 C349.2712,187.1381 349.3112,186.6041 349.3112,186.0771 C349.3072,180.9071 345.5012,176.3941 340.2242,175.4661 Z M307.7242,168.4561 C307.4832,168.3981 307.2402,168.3711 307.0012,168.3711 C306.3212,168.3721 305.6682,168.5911 305.1292,168.9881 C304.5922,169.3851 304.1682,169.9771 303.9942,170.6911 C301.1062,182.4861 298.2202,194.2811 295.3342,206.0761 C295.2782,206.3031 295.2512,206.5331 295.2512,206.7581 C295.2522,207.5021 295.5392,208.1851 295.9882,208.7151 C296.4382,209.2451 297.0562,209.6371 297.7722,209.8111 C298.0492,209.8781 298.3282,209.9111 298.6022,209.9111 C299.3012,209.9111 299.9722,209.6971 300.5182,209.2951 C301.0632,208.8951 301.4782,208.2981 301.6422,207.5931 L310.0282,172.1441 C310.0852,171.9061 310.1122,171.6671 310.1122,171.4301 C310.1182,170.0261 309.1302,168.7871 307.7242,168.4561 Z M263.1512,199.9661 C263.1512,199.9661 263.1502,199.9651 263.1492,199.9651 C263.1492,199.9641 263.1482,199.9641 263.1482,199.9641 L263.1512,199.9661 Z M275.4352,159.9671 L275.4372,159.9671 L275.4392,159.9671 L275.4352,159.9671 Z M258.0572,187.6071 C258.0572,187.6071 258.0572,187.6061 258.0572,187.6051 L258.0572,187.6071 Z M285.7442,168.1701 L285.7372,168.1461 C284.4382,163.5301 280.2962,160.1631 275.4372,159.9671 C275.2732,159.9611 275.1112,159.9571 274.9502,159.9571 C270.2542,159.9541 266.0562,162.8471 264.6162,167.2821 L264.6152,167.2841 C262.4292,174.0571 260.2432,180.8321 258.0572,187.6051 C257.7342,188.6001 257.5772,189.6221 257.5772,190.6341 C257.5782,194.3161 259.6352,197.8721 263.1492,199.9651 C265.0932,201.1331 267.2772,201.7061 269.4282,201.7061 C272.1692,201.7061 274.8732,200.7741 276.9522,198.9241 L276.9672,198.9121 L276.9812,198.8971 C277.5882,198.3151 277.8942,197.5231 277.8932,196.7391 C277.8942,195.9451 277.5812,195.1361 276.9652,194.5231 L276.9472,194.5061 L276.9282,194.4881 C276.2622,193.8911 275.4172,193.6021 274.5752,193.6001 C273.8352,193.5991 273.0702,193.8311 272.4532,194.3541 L272.4492,194.3571 L272.4432,194.3631 C271.5762,195.1211 270.4192,195.5301 269.2052,195.5301 C268.2622,195.5301 267.2912,195.2821 266.4102,194.7701 C264.8822,193.8701 264.0152,192.3151 264.0172,190.7841 C264.0172,190.3761 264.0782,189.9661 264.2042,189.5661 C266.3382,182.7731 268.4722,175.9821 270.6052,169.1911 C271.1862,167.3371 272.9752,166.0721 274.9692,166.0721 C275.0422,166.0721 275.1152,166.0741 275.1892,166.0781 C277.3532,166.1951 279.1372,167.6491 279.6692,169.6211 L279.6702,169.6231 L279.6712,169.6281 C279.8662,170.3231 280.2882,170.9021 280.8262,171.3111 C281.3642,171.7201 282.0322,171.9691 282.7492,171.9701 C282.9892,171.9701 283.2332,171.9421 283.4762,171.8821 C284.1882,171.7051 284.7822,171.2861 285.1872,170.7511 C285.5942,170.2151 285.8252,169.5581 285.8262,168.8681 C285.8262,168.6451 285.8012,168.4191 285.7502,168.1941 L285.7442,168.1701 Z" id="Fill-10" fill="#FFFFFF"></path>
        </g>
        <g id="Group-2" transform="translate(27.000000, 192.000000)"></g>
    </g>
</svg>