<?xml version="1.0" encoding="UTF-8"?>
<svg width="860px" height="513px" viewBox="0 0 860 513" version="1.1" xmlns="http://www.w3.org/2000/svg" xmlns:xlink="http://www.w3.org/1999/xlink">
    <!-- Generator: Sketch 51.3 (57544) - http://www.bohemiancoding.com/sketch -->
    <title>Desktop HD</title>
    <desc>Created with Sketch.</desc>
    <defs></defs>
    <g id="Desktop-HD" stroke="none" stroke-width="1" fill="none" fill-rule="evenodd">
        <g id="Group-3" transform="translate(222.000000, 0.000000)">
            <path d="M257.6053,91.0721 L239.1443,91.1381 L239.1373,91.1381 C239.0633,91.1371 239.0293,91.1251 239.0043,91.1151 C238.9703,91.0991 238.9463,91.0781 238.9173,91.0311 C238.8873,90.9861 238.8683,90.9141 238.8683,90.8521 C238.8683,90.7901 238.8843,90.7451 238.9033,90.7171 C238.9233,90.6901 238.9403,90.6621 239.0413,90.6201 L273.7973,77.1311 C273.8613,77.1071 273.8973,77.1031 273.9223,77.1031 C273.9753,77.1051 274.0143,77.1181 274.0783,77.1821 C274.1383,77.2431 274.1753,77.3461 274.1723,77.4041 L274.1563,77.4801 C274.1443,77.5041 274.1263,77.5361 274.0643,77.5881 L257.7753,91.0101 C257.7283,91.0501 257.6673,91.0721 257.6053,91.0721 M233.8883,86.3021 C233.8343,86.3011 233.7883,86.2841 233.7253,86.2221 C233.6653,86.1601 233.6303,86.0661 233.6333,86.0111 C233.6383,85.9601 233.6323,85.9351 233.7173,85.8411 L233.7183,85.8401 L254.4913,64.3861 L254.4913,64.3871 C254.5423,64.3341 254.6133,64.3051 254.6843,64.3051 L254.7243,64.3081 L254.7263,64.3081 L279.2213,68.1931 C279.3353,68.2161 279.3513,68.2391 279.3873,68.2781 C279.4193,68.3161 279.4483,68.3911 279.4473,68.4661 C279.4473,68.5281 279.4303,68.5791 279.4093,68.6111 C279.3853,68.6431 279.3673,68.6701 279.2753,68.7081 L234.0073,86.2771 C233.9503,86.2991 233.9153,86.3021 233.8883,86.3021 M261.3843,98.6831 L261.7943,98.3441 L299.2703,67.4641 C299.5863,67.2041 299.8323,66.8801 299.9913,66.5321 C300.1513,66.1831 300.2263,65.8131 300.2253,65.4511 C300.2243,64.8521 300.0253,64.2701 299.6453,63.7941 C299.2673,63.3191 298.6863,62.9581 298.0153,62.8551 L253.0013,55.7171 C252.8653,55.6951 252.7283,55.6841 252.5913,55.6841 C251.8883,55.6841 251.2073,55.9681 250.7093,56.4821 L213.4153,94.9971 C212.9173,95.5051 212.6693,96.1781 212.6743,96.8091 C212.6753,97.4871 212.9313,98.1261 213.3883,98.6181 C213.6183,98.8641 213.9013,99.0711 214.2273,99.2151 C214.5373,99.3531 214.8843,99.4291 215.2433,99.4361 L215.2433,99.4381 L215.2733,99.4391 L259.7283,99.2801 C260.3333,99.2791 260.9183,99.0671 261.3843,98.6831 M162.1813,121.6591 L66.0313,84.1461 C65.8943,84.0931 65.7743,83.9991 65.6883,83.8771 L7.5013,1.5301 C7.1493,1.0301 6.6953,0.6341 6.1913,0.3771 C5.6893,0.1181 5.1453,0.0001 4.6243,0.0011 C3.6833,0.0041 2.8113,0.3631 2.1373,0.9731 C1.8013,1.2801 1.5143,1.6561 1.3093,2.0921 C1.1053,2.5281 0.9863,3.0251 0.9873,3.5431 C0.9873,3.9831 1.0723,4.4351 1.2393,4.8701 L42.0813,111.7821 C42.3513,112.4901 42.8393,113.0941 43.4763,113.5071 L43.4753,113.5061 L122.8663,165.0351 C123.4633,165.4241 124.1453,165.6131 124.8113,165.6121 C125.3963,165.6121 125.9733,165.4691 126.4923,165.1941 C127.0113,164.9191 127.4733,164.5071 127.8133,163.9831 L129.2863,161.7131 C129.6743,161.1151 129.8643,160.4341 129.8633,159.7681 C129.8633,159.1821 129.7203,158.6061 129.4443,158.0861 C129.1693,157.5681 128.7573,157.1051 128.2333,156.7661 L50.7663,106.4851 C50.6323,106.3981 50.5293,106.2701 50.4723,106.1211 L30.4163,53.6191 C30.3643,53.4831 30.3503,53.3821 30.3503,53.2991 C30.3513,53.2011 30.3693,53.1241 30.4063,53.0451 C30.4603,52.9271 30.5673,52.8041 30.7113,52.7151 C30.8543,52.6251 31.0243,52.5771 31.1653,52.5781 C31.2703,52.5791 31.3583,52.6001 31.4453,52.6441 C31.5323,52.6901 31.6263,52.7591 31.7373,52.9141 L58.8573,91.2941 C59.2613,91.8661 59.8243,92.3071 60.4793,92.5621 L60.4783,92.5621 L158.5983,130.8441 C159.0223,131.0101 159.4643,131.0901 159.8973,131.0901 C160.6153,131.0891 161.3073,130.8741 161.8923,130.4821 C162.4773,130.0911 162.9563,129.5151 163.2303,128.8131 L164.2133,126.2911 C164.3793,125.8671 164.4593,125.4251 164.4593,124.9911 C164.4583,124.2741 164.2423,123.5821 163.8513,122.9971 C163.4593,122.4131 162.8833,121.9331 162.1813,121.6591 M411.9383,2.0921 C411.6303,1.4371 411.1423,0.9201 410.5703,0.5631 C409.9973,0.2071 409.3303,0.0011 408.6243,0.0001 C408.1023,-0.0009 407.5593,0.1181 407.0563,0.3761 C406.5523,0.6331 406.0983,1.0301 405.7473,1.5301 L347.5593,83.8781 C347.4733,83.9991 347.3543,84.0921 347.2163,84.1461 L251.0673,121.6591 C250.3653,121.9331 249.7893,122.4131 249.3973,122.9971 C249.0053,123.5821 248.7903,124.2741 248.7903,124.9921 C248.7893,125.4251 248.8693,125.8681 249.0353,126.2921 L250.0183,128.8131 C250.2923,129.5141 250.7713,130.0911 251.3563,130.4821 C251.9403,130.8741 252.6323,131.0891 253.3503,131.0901 C253.7853,131.0901 254.2263,131.0101 254.6493,130.8451 L352.7703,92.5621 C353.4223,92.3071 353.9863,91.8661 354.3913,91.2951 L381.5103,52.9131 C381.6223,52.7591 381.7163,52.6891 381.8023,52.6431 C381.8903,52.5991 381.9783,52.5781 382.0843,52.5771 C382.2703,52.5741 382.5113,52.6661 382.6683,52.8131 C382.7473,52.8851 382.8053,52.9651 382.8413,53.0441 C382.8783,53.1241 382.8973,53.2001 382.8983,53.2981 C382.8973,53.3831 382.8833,53.4841 382.8333,53.6191 L362.7763,106.1211 C362.7193,106.2701 362.6163,106.3981 362.4823,106.4851 L285.0143,156.7661 C284.4903,157.1051 284.0783,157.5681 283.8033,158.0861 C283.5273,158.6061 283.3843,159.1821 283.3843,159.7681 C283.3833,160.4331 283.5733,161.1151 283.9613,161.7131 L285.4343,163.9831 C285.7743,164.5071 286.2363,164.9191 286.7553,165.1941 C287.2743,165.4691 287.8513,165.6121 288.4373,165.6121 C289.1033,165.6131 289.7853,165.4241 290.3813,165.0361 L290.3813,165.0351 L369.7743,113.5061 C370.4103,113.0931 370.8973,112.4891 371.1683,111.7831 L412.0083,4.8691 C412.1763,4.4331 412.2603,3.9821 412.2603,3.5421 C412.2613,3.0241 412.1423,2.5271 411.9383,2.0921" id="Fill-1" fill="#00B6A2"></path>
            <path d="M165.9563,276.8397 C165.9563,277.0667 165.9113,277.2567 165.8343,277.4287 C165.7203,277.6837 165.5263,277.9037 165.2793,278.0607 C165.0323,278.2187 164.7393,278.3047 164.4583,278.3037 C164.1273,278.2997 163.8173,278.2037 163.4973,277.9237 L132.7913,250.6177 C132.4763,250.3367 132.2963,249.9357 132.2963,249.5137 L132.2963,186.4247 C132.2963,186.1637 132.3463,185.9617 132.4233,185.7887 C132.5393,185.5317 132.7253,185.3277 132.9713,185.1767 C133.2153,185.0267 133.5173,184.9427 133.8063,184.9427 C134.0563,184.9437 134.2913,185.0027 134.4973,185.1177 C134.7033,185.2357 134.8903,185.4047 135.0583,185.6977 L162.1673,233.6397 C162.2723,233.8247 162.3353,234.0307 162.3543,234.2437 L165.9503,276.6957 C165.9543,276.7437 165.9563,276.7917 165.9563,276.8397 Z M232.7943,325.1537 C232.7243,325.9127 232.0863,326.4947 231.3243,326.4937 L222.9583,326.4937 C222.2173,326.4947 221.5903,325.9437 221.4943,325.2097 L211.0223,245.5827 C210.9463,244.9987 210.7663,244.4547 210.5003,243.9797 C210.1023,243.2647 209.5133,242.7167 208.8573,242.3657 C208.2003,242.0127 207.4783,241.8447 206.7613,241.8447 C205.8053,241.8447 204.8343,242.1437 204.0343,242.7817 C203.6363,243.0997 203.2863,243.5037 203.0203,243.9797 C202.7543,244.4547 202.5753,244.9987 202.4983,245.5827 L192.0283,325.2097 C191.9323,325.9437 191.3053,326.4937 190.5633,326.4937 L182.1973,326.4937 C181.4353,326.4947 180.7963,325.9127 180.7273,325.1537 L172.0433,231.8407 C171.9873,231.2357 171.8033,230.6517 171.5063,230.1237 L134.0553,163.8927 C133.9253,163.6637 133.8643,163.4157 133.8633,163.1667 C133.8643,162.7817 134.0113,162.4067 134.2953,162.1217 L164.0173,132.4017 C164.2943,132.1247 164.6693,131.9687 165.0603,131.9687 L189.5883,131.9687 C189.9323,131.9687 190.2653,132.0887 190.5293,132.3067 L204.0223,143.4537 C204.8153,144.1097 205.7913,144.4397 206.7613,144.4387 C207.7293,144.4397 208.7063,144.1097 209.4983,143.4547 L222.9923,132.3067 C223.2563,132.0887 223.5883,131.9687 223.9323,131.9687 L248.4603,131.9687 C248.8533,131.9687 249.2283,132.1247 249.5043,132.4017 L279.2263,162.1217 C279.5113,162.4067 279.6583,162.7827 279.6593,163.1667 C279.6583,163.4157 279.5963,163.6637 279.4673,163.8937 L242.0163,230.1237 C241.7173,230.6517 241.5343,231.2367 241.4773,231.8397 L232.7943,325.1537 Z M183.0153,361.3537 L181.0333,337.9537 L181.0333,337.9527 C181.0293,337.9087 181.0273,337.8667 181.0273,337.8257 C181.0283,337.4237 181.1883,337.0607 181.4583,336.7877 C181.7303,336.5177 182.0873,336.3537 182.5053,336.3527 L196.7363,336.3527 C198.8943,336.3527 200.7163,334.7537 200.9983,332.6147 L205.2963,299.9257 C205.3303,299.6737 205.3983,299.4857 205.4833,299.3327 C205.6123,299.1057 205.7813,298.9467 206.0003,298.8267 C206.2183,298.7087 206.4883,298.6417 206.7613,298.6417 C207.1263,298.6417 207.4773,298.7617 207.7243,298.9607 C207.8493,299.0607 207.9523,299.1797 208.0383,299.3327 C208.1233,299.4857 208.1913,299.6737 208.2253,299.9257 L212.5243,332.6147 C212.8053,334.7537 214.6283,336.3527 216.7863,336.3527 L230.5783,336.3527 C230.9953,336.3537 231.3533,336.5177 231.6243,336.7877 C231.8943,337.0597 232.0543,337.4227 232.0553,337.8247 C232.0553,337.8677 232.0523,337.9147 232.0483,337.9647 L229.9703,361.3607 C229.9033,362.1207 229.2643,362.7067 228.4993,362.7057 L184.4873,362.7057 C183.7203,362.7067 183.0803,362.1177 183.0153,361.3537 Z M247.3743,276.8697 L247.3743,276.8647 L251.1623,234.2487 C251.1803,234.0397 251.2433,233.8367 251.3473,233.6517 L278.4633,185.6967 C278.6313,185.4037 278.8193,185.2347 279.0243,185.1177 C279.2303,185.0017 279.4653,184.9427 279.7153,184.9427 C280.1023,184.9407 280.5053,185.0947 280.7773,185.3457 C280.9143,185.4707 281.0223,185.6157 281.0993,185.7887 C281.1753,185.9617 281.2253,186.1637 281.2263,186.4237 L281.2263,249.5137 C281.2263,249.9347 281.0453,250.3377 280.7303,250.6167 L249.8283,278.0987 C249.5053,278.3797 249.1963,278.4757 248.8653,278.4797 C248.4913,278.4827 248.0943,278.3237 247.8163,278.0597 C247.6763,277.9277 247.5663,277.7747 247.4903,277.6037 C247.4143,277.4317 247.3693,277.2427 247.3683,277.0157 C247.3683,276.9667 247.3703,276.9177 247.3743,276.8697 Z M289.8223,158.6697 L288.8263,159.6687 L289.8223,158.6697 L254.4143,123.3637 C253.6083,122.5607 252.5163,122.1097 251.3783,122.1097 L221.4023,122.1097 C220.4033,122.1097 219.4343,122.4577 218.6643,123.0937 L214.1083,126.8587 C213.8003,127.1077 213.4993,127.1987 213.1823,127.2017 C212.8063,127.2037 212.4143,127.0477 212.1393,126.7847 C212.0003,126.6537 211.8903,126.5007 211.8133,126.3267 C211.7373,126.1527 211.6913,125.9567 211.6903,125.7197 L211.6903,70.2417 C211.6913,69.0597 211.2063,67.9757 210.4313,67.2027 C209.6583,66.4267 208.5743,65.9427 207.3923,65.9437 L206.1303,65.9437 C204.9473,65.9427 203.8633,66.4267 203.0903,67.2027 C202.3143,67.9757 201.8303,69.0597 201.8313,70.2417 L201.8313,125.7197 C201.8303,125.9567 201.7843,126.1527 201.7073,126.3267 C201.5933,126.5867 201.4003,126.8047 201.1553,126.9607 C200.9123,127.1167 200.6213,127.2027 200.3393,127.2017 C200.0213,127.1987 199.7203,127.1077 199.4143,126.8587 L194.8573,123.0937 C194.0873,122.4577 193.1193,122.1097 192.1203,122.1097 L162.1463,122.1097 C161.0053,122.1097 159.9133,122.5627 159.1063,123.3687 L123.6963,158.7787 C122.8903,159.5847 122.4363,160.6787 122.4363,161.8187 L122.4363,252.6737 C122.4363,253.9007 122.9613,255.0697 123.8793,255.8847 L167.0303,294.2597 C167.3133,294.5117 167.4883,294.8617 167.5203,295.2387 L173.7373,368.6297 C173.9263,370.8557 175.7863,372.5647 178.0203,372.5657 L234.9393,372.5657 C237.1663,372.5647 239.0233,370.8647 239.2213,368.6477 L245.7213,295.4827 C245.7543,295.1077 245.9303,294.7587 246.2103,294.5097 L289.6433,255.8847 C290.5603,255.0697 291.0853,253.9007 291.0853,252.6737 L291.0853,161.7137 C291.0853,160.5707 290.6303,159.4767 289.8223,158.6697 Z" id="Fill-3" fill="#DA5037"></path>
        </g>
        <g id="Group-2" transform="translate(27.000000, 192.000000)"></g>
    </g>
</svg>