<?xml version="1.0" encoding="UTF-8"?>
<svg width="860px" height="513px" viewBox="0 0 860 513" version="1.1" xmlns="http://www.w3.org/2000/svg" xmlns:xlink="http://www.w3.org/1999/xlink">
    <!-- Generator: Sketch 58 (84663) - https://sketch.com -->
    <title>path52</title>
    <desc>Created with Sketch.</desc>
    <g id="Page-1" stroke="none" stroke-width="1" fill="none" fill-rule="evenodd">
        <g id="text" transform="translate(15, 200.000000)" fill="#D5B991" fill-rule="nonzero">
            <path d="M729.460055,7.75133861 L732.377784,13.5646389 L735.277579,7.75133861 L729.460055,7.75133861 Z M739.846162,3.50378427 L733.339763,16.2920673 C733.144922,16.6553986 732.79437,16.8631329 732.3786,16.8631329 C731.935111,16.8631329 731.556027,16.6382911 731.393795,16.2855502 L724.861308,3.42557844 C724.62652,2.90339157 724.845818,2.36002396 725.394472,2.10341106 C725.55915,2.02683452 725.744209,1.98447303 725.929267,1.98447303 C726.291232,1.98447303 726.650751,2.14821649 726.839071,2.53517244 L728.503783,5.77989988 L736.252602,5.77989988 L737.852095,2.60523183 C738.02574,2.24760307 738.36977,2.03253703 738.793692,2.0154295 C739.224137,1.99669269 739.679039,2.21175873 739.878772,2.54983603 C740.052417,2.84473719 740.037743,3.19014629 739.846162,3.50378427 M715.843167,15.6721232 L715.843982,8.00876614 L715.991539,5.77745595 L708.298972,16.0590791 C707.951681,16.5731196 707.352483,16.8077371 706.804644,16.6391057 C706.302459,16.485138 705.990223,16.0240494 705.990223,15.4350618 L705.990223,3.06306181 C705.990223,2.33639928 706.553551,1.95596048 707.111173,1.95596048 C707.673686,1.95596048 708.244351,2.33639928 708.244351,3.06306181 L708.243536,10.7019795 L708.129403,12.6660865 L715.583921,2.68995482 C715.891265,2.17835832 716.571988,1.93315045 717.200535,2.10829893 C717.75408,2.26145202 718.097294,2.70950627 718.097294,3.2789425 L718.097294,15.6721232 C718.097294,16.9869588 715.843167,16.9739245 715.843167,15.6721232 M691.05999,4.01619541 C688.07215,4.01619541 685.985961,6.27031563 685.985961,9.49712091 C685.985961,12.273428 687.543062,14.2432374 690.044206,14.6358959 C690.332799,14.6766281 690.627915,14.6969942 690.927106,14.6969942 C691.226298,14.6969942 691.528751,14.6766281 691.832019,14.6367105 C694.326641,14.2310178 696.069616,12.117831 696.069616,9.49712091 C696.069616,6.27031563 694.010329,4.01619541 691.05999,4.01619541 M692.110829,16.6879844 C691.228744,16.7890002 690.499108,16.7881856 689.736862,16.6863551 C686.214227,16.1332117 683.753844,13.2029369 683.753844,9.56229244 C683.753844,5.0597545 686.757989,1.91522828 691.05999,1.91522828 C695.176117,1.91522828 698.280536,5.20313186 698.280536,9.56229244 C698.280536,13.1345068 695.690531,16.1315825 692.110829,16.6879844 M677.505875,15.9507315 C677.33223,16.3108042 676.931134,16.5177238 676.407752,16.5177238 L666.101538,16.5169091 C665.419185,16.471289 665.079232,15.9433997 665.096352,15.4456521 C665.111841,14.9666414 665.46973,14.4819282 666.122734,14.4819282 L674.200908,14.4819282 L664.956131,3.90295988 C664.649602,3.52659431 664.568079,3.08750114 664.739278,2.72824309 C664.912924,2.36246789 665.307498,2.15228971 665.820281,2.15228971 L676.512918,2.15310435 C677.22788,2.19790978 677.584953,2.74127739 677.568648,3.25531782 C677.553159,3.75143608 677.178965,4.25325684 676.493352,4.25325684 L667.948863,4.25325684 L677.273533,14.727136 C677.594736,15.1311995 677.681151,15.5882148 677.505875,15.9507315 M655.616787,15.9099993 L655.616787,2.99789029 C655.616787,2.298111 656.171962,1.93152116 656.718986,1.93152116 C657.266824,1.93152116 657.848088,2.30462816 657.848088,2.99789029 L657.848088,15.9099993 C657.848088,17.3559925 655.616787,17.3706561 655.616787,15.9099993 M645.061925,9.91910655 C644.436639,9.27798165 643.364604,8.9390897 641.960767,8.9390897 L637.901707,8.9390897 L637.901707,14.4599328 L641.960767,14.4599328 C644.160274,14.4599328 645.652971,13.2974356 645.674983,11.5622437 C645.692103,10.9162309 645.479326,10.348424 645.061925,9.91910655 M647.885088,11.5695755 C647.885088,14.0322446 646.04673,16.5177238 641.939571,16.5177238 L636.818258,16.5177238 C636.1677,16.5177238 635.713613,16.0810745 635.713613,15.4562425 L635.713613,3.06306181 C635.713613,1.70016224 637.901707,1.70912332 637.901707,3.08424256 L637.901707,6.96765098 L641.654238,6.96765098 L645.933413,2.33151141 C646.160048,2.0985232 646.44375,1.97551194 646.739681,1.97551194 C646.830987,1.97551194 646.923109,1.98691696 647.014416,2.01054164 C647.39187,2.10748428 647.68617,2.3885365 647.783183,2.74372133 C647.84188,2.95471415 647.875305,3.37181193 647.457904,3.78890971 L644.324137,7.17049736 C646.626363,7.73911894 647.885088,9.2844988 647.885088,11.5695755 M618.274083,7.75133861 L621.191813,13.5646389 L624.091608,7.75133861 L618.274083,7.75133861 Z M622.153792,16.2920673 C621.95895,16.6553986 621.608399,16.8631329 621.192628,16.8631329 C620.74914,16.8631329 620.37087,16.6382911 620.207823,16.2855502 L613.676152,3.42557844 C613.441364,2.90339157 613.659847,2.36002396 614.208501,2.10341106 C614.373179,2.02683452 614.559052,1.98447303 614.743296,1.98447303 C615.106076,1.98447303 615.46478,2.14821649 615.653099,2.53517244 L617.317811,5.77989988 L625.06663,5.77989988 L626.666123,2.60523183 C626.839769,2.24760307 627.183798,2.03253703 627.607721,2.0154295 C628.045503,1.99669269 628.493067,2.21175873 628.693615,2.54983603 C628.866445,2.84473719 628.851771,3.19014629 628.660191,3.50378427 L622.153792,16.2920673 Z M595.590955,4.18889996 C595.21024,4.16038742 594.894743,3.92984314 594.721913,3.55021898 L593.836567,1.47939368 C593.561832,0.853747016 593.878144,0.29815974 594.316741,0.0928694273 C594.443102,0.0334004081 594.586584,0 594.733326,0 C595.074095,0 595.436875,0.180036346 595.665141,0.63786633 L596.632826,2.65899834 C596.8187,3.00440744 596.809733,3.37995837 596.609185,3.68870848 C596.393962,4.0178247 595.986344,4.22392966 595.590955,4.18889996 M578.10088,7.75133861 L581.01861,13.5646389 L583.918405,7.75133861 L578.10088,7.75133861 Z M581.980589,16.2920673 C581.784932,16.6553986 581.435196,16.8631329 581.019425,16.8631329 C580.575937,16.8631329 580.196852,16.6382911 580.03462,16.2855502 L573.502133,3.42557844 C573.267345,2.90339157 573.486644,2.36002396 574.035298,2.10341106 C574.199976,2.02683452 574.385034,1.98447303 574.570093,1.98447303 C574.932058,1.98447303 575.291577,2.14821649 575.479896,2.53517244 L577.144608,5.77989988 L584.893427,5.77989988 L586.49292,2.60523183 C586.666566,2.24760307 587.010595,2.03253703 587.434518,2.0154295 C587.870669,1.99669269 588.319864,2.21175873 588.519597,2.54983603 C588.693242,2.84473719 588.678568,3.19014629 588.486988,3.50378427 L581.980589,16.2920673 Z M561.703222,10.3785658 L561.377127,10.4062637 C558.649348,10.6180712 556.991973,10.8551326 556.991973,12.3687414 C556.991973,14.1992467 559.917855,14.6106419 560.943422,14.6106419 C562.562481,14.6106419 564.610354,14.3108529 565.179388,12.8713768 C565.428035,12.3076431 566.116095,12.1911489 566.6354,12.4013271 C567.173456,12.621281 567.406613,13.1108821 567.215033,13.6192201 C566.240011,16.2643694 563.254616,16.8199567 560.922226,16.8199567 C557.82759,16.8199567 554.695453,15.2982015 554.695453,12.3899221 C554.695453,8.86495709 558.2776,8.57983165 561.156198,8.35091666 L561.281745,8.34032629 C563.919033,8.12526025 565.520972,7.88901346 565.520972,6.43080052 C565.520972,4.06263012 561.586643,3.99420002 561.137448,3.99420002 C560.00427,3.99420002 557.311545,4.18482674 556.745771,5.94690193 C556.674031,6.27927672 556.439243,6.53100174 556.100104,6.63853477 C555.659877,6.77702426 555.131604,6.65645694 554.810401,6.34689218 C554.551156,6.09924037 554.458219,5.75383127 554.555232,5.39946109 C555.280792,2.76408743 558.55478,1.828876 561.137448,1.828876 C564.209258,1.828876 567.795481,3.03943713 567.795481,6.45279591 C567.795481,9.85393503 564.558994,10.1325433 561.703222,10.3785658 M546.896089,4.18889996 L538.667096,4.18889996 L538.667096,8.2629351 L546.486025,8.2629351 C546.780326,8.2629351 547.039571,8.37617063 547.217292,8.57983165 C547.371372,8.75742407 547.456156,8.9944855 547.456156,9.24702517 C547.456156,9.73662628 547.115388,10.2563692 546.486025,10.2563692 L538.667096,10.2563692 L538.667096,14.5031089 L546.896089,14.5031089 C547.549093,14.5031089 547.901275,15.0261104 547.901275,15.5181554 C547.901275,15.7715098 547.81486,16.0077566 547.655889,16.185349 C547.529528,16.327097 547.298,16.4957284 546.9181,16.4957284 L537.79887,16.4957284 C537.058635,16.4957284 536.500199,15.9653951 536.500199,15.2623572 L536.500199,3.40765627 C536.500199,2.69239875 537.058635,2.15228971 537.79887,2.15228971 L546.896089,2.15228971 C547.297185,2.15228971 547.53931,2.31847711 547.670563,2.4569666 C547.839317,2.63455902 547.931439,2.87569367 547.931439,3.13475049 C547.931439,3.65286414 547.543387,4.18889996 546.896089,4.18889996 M527.122538,16.5918564 C526.639918,16.7327898 526.134472,16.5112066 525.827128,16.0313812 L520.855003,8.22872005 L515.851084,16.0150883 C515.585317,16.4924698 515.088839,16.7303459 514.603773,16.60652 C514.120338,16.4810648 513.808918,16.0378984 513.808918,15.4782379 L513.808918,3.04106642 C513.809733,1.62032711 515.997827,1.61788318 515.997012,3.04106642 L515.997012,11.8017491 L519.827806,5.83692497 C520.029984,5.4458958 520.402547,5.20801973 520.821579,5.20313186 C520.82647,5.20313186 520.832177,5.20231722 520.837883,5.20231722 C521.25936,5.20313186 521.640076,5.43612007 521.848776,5.81330029 L525.692614,11.8204859 L525.692614,3.04106642 C525.692614,2.33069677 526.243714,1.95840441 526.787476,1.95840441 C527.331239,1.95840441 527.881523,2.33069677 527.881523,3.04106642 L527.881523,15.4782379 C527.881523,16.0199762 527.583147,16.4574401 527.122538,16.5918564 M309.836038,15.6721232 L309.836038,10.08285 L302.497283,10.08285 L302.497283,15.6721232 C302.496468,16.7311605 301.231221,16.9853295 300.667078,16.4794355 C300.512998,16.3417606 300.328755,16.089221 300.328755,15.6721232 L300.328755,3.08424256 C300.32957,2.00483913 301.612752,1.73356264 302.171189,2.26063738 C302.319561,2.40075616 302.497283,2.65736905 302.497283,3.08424256 L302.497283,8.11222594 L309.836038,8.11222594 L309.836038,3.08424256 C309.836038,2.35187751 310.381431,1.96899479 310.919487,1.96899479 C311.455912,1.96899479 312.025762,2.36002396 312.025762,3.08424256 L312.025762,15.6721232 C312.025762,17.0936771 309.836038,17.0936771 309.836038,15.6721232 M291.535619,16.5177238 L280.343243,16.5177238 C279.933994,16.5177238 279.683717,16.3368728 279.545942,16.1845343 C279.371481,15.993093 279.276099,15.7381094 279.276099,15.4676475 C279.276099,14.9454606 279.64214,14.4167566 280.343243,14.4167566 L284.834378,14.4167566 L284.834378,2.99789029 C284.834378,2.28100348 285.392815,1.89404753 285.918642,1.89404753 C286.472188,1.89404753 287.044483,2.30625745 287.044483,2.99789029 C287.044483,4.94163111 287.039592,6.90166481 287.033885,8.86088387 C287.028994,10.7174578 287.024102,12.5740317 287.023287,14.4167566 L291.535619,14.4167566 C292.257918,14.4167566 292.635372,14.9454606 292.635372,15.4676475 C292.635372,15.9890197 292.257918,16.5177238 291.535619,16.5177238 M270.138118,10.7280481 C270.138118,9.22747371 268.727759,8.0967477 266.856792,8.0967477 C265.118709,8.0967477 263.705905,9.46127657 263.705905,11.1378141 C263.705905,13.2672938 265.440727,14.4167566 267.07283,14.4167566 C267.774748,14.4167566 268.388621,14.2513839 268.90222,13.921453 C269.675879,13.4505887 270.138118,12.5952124 270.138118,11.634747 L270.138118,10.7280481 Z M269.998712,15.6517571 C269.146791,16.1755732 268.135083,16.4525522 267.07283,16.4525522 C265.544262,16.4525522 264.078468,15.8554181 263.05127,14.8143029 C262.083585,13.8342861 261.58303,12.5609974 261.602596,11.1353702 C261.625423,8.242569 263.893409,6.0609521 266.878804,6.0609521 C267.983449,6.0609521 269.325327,6.47886452 270.224533,7.39370985 L270.224533,7.33831405 C270.224533,5.18602434 268.973145,3.95102388 266.792389,3.95102388 C265.601329,3.95102388 264.574947,4.33716518 264.046674,4.9839926 C263.63661,5.48174014 263.026813,5.42715899 262.636315,5.1151503 C262.223806,4.78521944 262.016736,4.13757738 262.452072,3.57873153 C263.392039,2.46022518 264.843975,1.89404753 266.770377,1.89404753 C270.068007,1.89404753 272.283819,4.09032802 272.283819,7.35949479 L272.283819,11.6559278 C272.283819,13.3047674 271.428636,14.7996394 269.998712,15.6517571 M253.24072,16.4012297 C252.753208,16.5918564 252.185804,16.459884 251.829546,16.0737427 L248.667245,11.7838269 C248.439794,11.4465642 248.405554,11.057979 248.572678,10.7182724 C248.743877,10.3704194 249.106657,10.1300994 249.49634,10.1056601 C249.902328,10.0852939 250.296902,10.2922136 250.552886,10.6807988 L251.834437,12.488494 L251.834437,2.86836187 C251.834437,2.23212483 252.357819,1.8989354 252.874679,1.8989354 C253.392353,1.8989354 253.915735,2.23212483 253.915735,2.86836187 L253.915735,15.4130664 C253.915735,15.8668231 253.663012,16.2366715 253.24072,16.4012297 M225.417528,9.91910655 C224.793057,9.27798165 223.721021,8.9390897 222.317185,8.9390897 L218.258125,8.9390897 L218.258125,14.4599328 L222.317185,14.4599328 C224.516692,14.4599328 226.009389,13.2974356 226.031401,11.5622437 C226.04852,10.9162309 225.835744,10.348424 225.417528,9.91910655 M228.241506,11.5695755 C228.241506,14.0322446 226.403148,16.5177238 222.295989,16.5177238 L217.174676,16.5177238 C216.524117,16.5177238 216.070031,16.0810745 216.070031,15.4562425 L216.070031,3.06306181 C216.070031,1.70016224 218.258125,1.70912332 218.258125,3.08424256 L218.258125,6.96765098 L222.010656,6.96765098 L226.28983,2.33151141 C226.516466,2.0985232 226.800168,1.97551194 227.096914,1.97551194 C227.187405,1.97551194 227.279527,1.98691696 227.370833,2.01054164 C227.748288,2.10748428 228.042588,2.3885365 228.140416,2.74372133 C228.197483,2.95471415 228.230907,3.37181193 227.814322,3.78890971 L224.680554,7.17049736 C226.982781,7.73911894 228.241506,9.2844988 228.241506,11.5695755 M206.17388,4.18889996 L197.944887,4.18889996 L197.944887,8.2629351 L205.763817,8.2629351 C206.058932,8.2629351 206.318177,8.37617063 206.495083,8.57983165 C206.649163,8.75742407 206.733948,8.9944855 206.733948,9.24702517 C206.733948,9.73662628 206.393994,10.2563692 205.763817,10.2563692 L197.944887,10.2563692 L197.944887,14.5031089 L206.17388,14.5031089 C206.826884,14.5031089 207.179882,15.0261104 207.179882,15.5181554 C207.179882,15.7715098 207.092651,16.0077566 206.93368,16.185349 C206.807319,16.327097 206.575792,16.4957284 206.195892,16.4957284 L197.077476,16.4957284 C196.336427,16.4957284 195.77799,15.9653951 195.77799,15.2623572 L195.77799,3.40765627 C195.77799,2.69239875 196.336427,2.15228971 197.077476,2.15228971 L206.17388,2.15228971 C206.574976,2.15228971 206.817102,2.31847711 206.94917,2.4569666 C207.117108,2.63455902 207.210045,2.87569367 207.210045,3.13475049 C207.210045,3.65286414 206.822808,4.18889996 206.17388,4.18889996 M181.193417,4.16690457 L176.658258,4.16690457 L176.658258,8.67351573 L181.841529,8.67351573 C182.756224,8.67351573 184.884806,8.46496684 184.884806,6.53914819 C184.884806,4.96525579 183.642386,4.16690457 181.193417,4.16690457 M176.658258,14.4819282 L180.695307,14.4819282 C181.027109,14.4819282 183.933425,14.4249031 183.933425,12.4550936 C183.933425,10.9944368 182.208386,10.6873159 180.760526,10.6873159 L176.658258,10.6873159 L176.658258,14.4819282 Z M184.88399,9.9329555 C185.678846,10.4844696 186.122334,11.3724316 186.122334,12.4550936 C186.122334,15.4342471 183.319552,16.4957284 180.695307,16.4957284 L175.57481,16.4957284 C174.965013,16.4957284 174.470165,16.0102005 174.470165,15.4130664 L174.470165,3.23576636 C174.470165,2.63863224 174.965013,2.15228971 175.57481,2.15228971 L181.193417,2.15228971 C185.012798,2.15228971 187.116107,3.71070387 187.116107,6.53914819 C187.116107,8.08697197 186.329404,9.27227914 184.88399,9.9329555 M158.329306,4.01619541 C155.341466,4.01619541 153.254461,6.27031563 153.254461,9.49712091 C153.254461,12.273428 154.811562,14.2432374 157.313522,14.6358959 C157.6013,14.6766281 157.896416,14.6969942 158.196422,14.6969942 C158.494799,14.6969942 158.797251,14.6766281 159.100519,14.6367105 C161.595957,14.2310178 163.338116,12.117831 163.338116,9.49712091 C163.338116,6.27031563 161.278015,4.01619541 158.329306,4.01619541 M159.37933,16.6879844 C158.494799,16.7898149 157.765162,16.7890002 157.006178,16.6863551 C153.482727,16.1332117 151.022345,13.2029369 151.022345,9.56229244 C151.022345,5.0597545 154.02649,1.91522828 158.329306,1.91522828 C162.445433,1.91522828 165.549036,5.20313186 165.549036,9.56229244 C165.549036,13.1345068 162.959031,16.1315825 159.37933,16.6879844 M143.697449,16.5177238 L132.505073,16.5177238 C132.095824,16.5177238 131.845547,16.3368728 131.707772,16.1845343 C131.534127,15.993093 131.437929,15.7381094 131.437929,15.4676475 C131.437929,14.9454606 131.804785,14.4167566 132.505073,14.4167566 L136.997024,14.4167566 L136.997024,2.99789029 C136.997024,2.28100348 137.554645,1.89404753 138.080472,1.89404753 C138.634018,1.89404753 139.207129,2.30625745 139.207129,2.99789029 C139.207129,4.94163111 139.201422,6.90166481 139.195715,8.86088387 C139.190824,10.7174578 139.185932,12.5740317 139.185117,14.4167566 L143.697449,14.4167566 C144.419748,14.4167566 144.798018,14.9454606 144.798018,15.4676475 C144.798018,15.9890197 144.419748,16.5177238 143.697449,16.5177238 M123.905963,6.37540472 C123.546444,6.4063612 123.222795,6.24994953 123.034475,5.9705266 C122.61952,5.43856401 122.011354,4.94244575 121.367318,4.61007096 C120.600181,4.22637359 119.758857,4.01619541 118.997426,4.01619541 C116.127795,4.01619541 113.793775,6.4747913 113.793775,9.49712091 C113.793775,12.2880916 115.393268,14.2008759 118.059905,14.6130859 C120.225172,14.8574791 121.666509,14.4151273 122.878765,13.1320629 C123.332037,12.6481643 123.988302,12.7605852 124.377169,13.1133261 C124.806799,13.5035406 124.839408,14.079494 124.44728,14.5226604 C122.724686,16.3319849 120.470558,17.0578328 117.741148,16.6863551 C114.197316,16.1356557 111.626062,13.1206579 111.626062,9.51830166 C111.626062,5.25526908 114.844614,1.91522828 118.954219,1.91522828 C119.993645,1.91522828 121.189596,2.20116836 122.322774,2.72009665 L122.329296,2.72335522 C123.34508,3.21947348 124.192111,3.91762347 124.778265,4.74367259 C124.992672,5.04753484 125.029358,5.40271967 124.88017,5.71880158 C124.710601,6.07968891 124.318472,6.34281896 123.905963,6.37540472 M96.3069609,4.01619541 C93.3191207,4.01619541 91.2321164,6.27031563 91.2321164,9.49712091 C91.2321164,12.273428 92.7892173,14.2432374 95.2911768,14.6358959 C95.5789551,14.6766281 95.8740705,14.6969942 96.1740774,14.6969942 C96.4724538,14.6969942 96.7749064,14.6766281 97.0781742,14.6367105 C99.5727966,14.2310178 101.315771,12.117831 101.315771,9.49712091 C101.315771,6.27031563 99.2556698,4.01619541 96.3069609,4.01619541 M97.356985,16.6879844 C96.4724538,16.7898149 95.7428175,16.7890002 94.9838328,16.6863551 C91.4603825,16.1332117 89,13.2029369 89,9.56229244 C89,5.0597545 92.0041449,1.91522828 96.3069609,1.91522828 C100.422273,1.91522828 103.526692,5.20313186 103.526692,9.56229244 C103.526692,13.1345068 100.936687,16.1315825 97.356985,16.6879844" id="path52" transform="translate(414.500000, 8.500000) scale(1, -1) translate(-414.500000, -8.500000) "></path>
        </g>
    </g>
</svg>