<?xml version="1.0" encoding="UTF-8"?>
<svg width="860px" height="513px" viewBox="0 0 860 513" version="1.1" xmlns="http://www.w3.org/2000/svg" xmlns:xlink="http://www.w3.org/1999/xlink">
    <!-- Generator: Sketch 51.3 (57544) - http://www.bohemiancoding.com/sketch -->
    <title>Desktop HD</title>
    <desc>Created with Sketch.</desc>
    <defs></defs>
    <g id="Desktop-HD" stroke="none" stroke-width="1" fill="none" fill-rule="evenodd">
        <g id="Group-2" transform="translate(27.000000, 192.000000)" fill="#D4BB98">
            <path d="M275.4241,10.3006 C275.4201,11.4606 275.0471,12.1846 274.5161,12.6576 C273.9841,13.1286 273.2491,13.3486 272.4941,13.3486 C271.7621,13.3486 271.0381,13.1056 270.5071,12.6176 C269.9771,12.1276 269.6091,11.3936 269.6061,10.2996 L269.6061,10.2596 L269.6061,6.5356 L269.6061,6.5316 L269.6061,6.4956 C269.6101,5.3456 269.9781,4.6256 270.5021,4.1556 C271.0271,3.6876 271.7511,3.4676 272.4941,3.4676 C273.2491,3.4676 273.9841,3.6886 274.5171,4.1576 C275.0481,4.6276 275.4201,5.3466 275.4241,6.4956 L275.4241,6.5376 L275.4241,10.2536 L275.4241,10.3006 Z M277.7331,6.5406 L277.7331,6.4996 C277.7361,4.7936 277.0821,3.4546 276.0921,2.5756 C275.1051,1.6946 273.8061,1.2616 272.5141,1.2616 C271.2281,1.2616 269.9351,1.6906 268.9511,2.5646 C267.9661,3.4376 267.3131,4.7656 267.3171,6.4596 L267.3181,6.5466 L267.3181,10.2556 L267.3171,10.3376 C267.3141,12.0406 267.9651,13.3736 268.9511,14.2486 C269.9351,15.1266 271.2281,15.5546 272.5141,15.5546 C273.8061,15.5546 275.1051,15.1226 276.0931,14.2386 C277.0821,13.3556 277.7361,12.0116 277.7331,10.2966 L277.7331,10.2536 L277.7331,6.5406 Z M255.0611,1.4766 C254.7031,1.4766 254.3271,1.6146 254.0491,1.9156 L254.0321,1.9326 L254.0181,1.9526 L251.0371,6.0026 L251.0331,6.0096 C250.8911,6.2176 250.8171,6.4526 250.8181,6.6796 C250.8181,7.0106 250.9671,7.3036 251.1821,7.5056 C251.3981,7.7076 251.6871,7.8336 252.0041,7.8346 C252.3931,7.8396 252.8011,7.6206 253.0621,7.2226 L253.0631,7.2236 L254.0161,5.8796 L254.0161,14.5646 C254.0111,14.8976 254.1711,15.2026 254.3961,15.3786 C254.6211,15.5566 254.8881,15.6316 255.1501,15.6326 C255.4101,15.6316 255.6771,15.5566 255.9021,15.3786 C256.1281,15.2026 256.2881,14.8976 256.2831,14.5646 L256.2831,2.6416 C256.2871,2.2876 256.1271,1.9646 255.8881,1.7676 C255.6511,1.5676 255.3561,1.4766 255.0611,1.4766 Z M238.1541,7.7466 L234.0081,7.7466 C233.6551,7.7436 233.3361,7.8806 233.1271,8.0996 C232.9151,8.3186 232.8101,8.6026 232.8101,8.8856 C232.8101,9.1596 232.9111,9.4436 233.1261,9.6576 C233.3401,9.8726 233.6581,9.9966 234.0081,9.9936 L238.1541,9.9936 C238.5091,9.9956 238.8301,9.8736 239.0491,9.6586 C239.2681,9.4466 239.3761,9.1586 239.3751,8.8806 C239.3751,8.5956 239.2651,8.3086 239.0491,8.0926 C238.8321,7.8746 238.5101,7.7446 238.1541,7.7466 Z M219.1201,7.0946 C219.1191,7.7106 218.8461,8.2836 218.3391,8.7216 C217.8311,9.1566 217.0851,9.4496 216.1501,9.4496 C215.3831,9.4506 214.6681,9.1466 214.1471,8.6496 C213.6261,8.1516 213.3031,7.4726 213.3021,6.7056 C213.3051,5.7646 213.6671,5.0436 214.2271,4.5316 C214.7871,4.0216 215.5551,3.7336 216.3551,3.7346 C216.9491,3.7346 217.5181,3.8636 218.0081,4.1786 L218.0121,4.1816 L218.0161,4.1836 C218.7171,4.6116 219.1191,5.3856 219.1201,6.2336 L219.1201,7.0946 Z M219.2101,2.2916 L219.2101,2.2906 C219.2091,2.2906 219.2091,2.2906 219.2081,2.2896 C219.2071,2.2896 219.2061,2.2886 219.2051,2.2876 L219.2051,2.2886 C218.3281,1.7506 217.3281,1.5086 216.3551,1.5076 C214.9891,1.5086 213.6621,1.9966 212.6661,2.8856 C211.6691,3.7716 211.0111,5.0726 211.0131,6.6316 L211.0141,6.7116 L211.0141,6.7086 C211.0241,8.1486 211.6121,9.4036 212.5501,10.2836 C213.4871,11.1646 214.7711,11.6766 216.1701,11.6766 C216.8531,11.6756 217.6031,11.5206 218.2941,11.1866 C218.6081,11.0356 218.9061,10.8406 219.1801,10.6096 C219.1261,11.4466 218.8651,12.1076 218.4141,12.5666 C217.9091,13.0776 217.1541,13.3876 216.0881,13.3906 C215.1191,13.3956 214.0901,13.0876 213.5941,12.4636 L213.5921,12.4616 C213.3801,12.1966 213.0631,12.0506 212.7661,12.0546 C212.4401,12.0566 212.1541,12.2006 211.9451,12.4096 C211.7361,12.6206 211.5891,12.9136 211.5881,13.2496 C211.5871,13.4946 211.6741,13.7536 211.8441,13.9706 L211.8501,13.9776 L211.8551,13.9836 C212.3941,14.6266 213.0801,15.0446 213.8091,15.2956 C214.5391,15.5466 215.3141,15.6366 216.0681,15.6366 C217.6091,15.6386 218.9651,15.1246 219.9301,14.1846 C220.8961,13.2466 221.4511,11.8926 221.4491,10.2966 L221.4491,6.2126 C221.4511,4.6046 220.6081,3.1266 219.2101,2.2916 Z M181.0531,7.9496 C180.5331,8.3596 179.6791,8.6496 178.4221,8.6496 L174.7131,8.6496 L174.7131,3.6936 L178.4221,3.6936 C179.5311,3.6936 180.3741,4.0076 180.9351,4.4786 C181.4961,4.9526 181.7921,5.5796 181.8031,6.3006 L181.8031,6.3026 L181.8041,6.3726 C181.7991,7.0116 181.5701,7.5376 181.0531,7.9496 Z M184.1941,6.2946 C184.1961,4.9866 183.6941,3.7506 182.7021,2.8636 C181.7121,1.9746 180.2571,1.4456 178.4021,1.4466 L173.5381,1.4466 C173.2211,1.4456 172.9141,1.5506 172.6901,1.7626 C172.4641,1.9726 172.3401,2.2816 172.3421,2.6006 L172.3421,14.3806 C172.3381,14.7286 172.4981,15.0466 172.7321,15.2336 C172.9651,15.4246 173.2461,15.5056 173.5211,15.5066 C173.7991,15.5056 174.0841,15.4226 174.3201,15.2276 C174.5561,15.0366 174.7171,14.7146 174.7131,14.3606 L174.7131,10.8146 L178.0671,10.8146 L182.0861,15.1726 L182.0901,15.1766 C182.3351,15.4326 182.6601,15.5616 182.9641,15.5586 C183.2701,15.5576 183.5521,15.4416 183.7661,15.2486 C183.9791,15.0566 184.1301,14.7716 184.1301,14.4466 C184.1321,14.1446 183.9931,13.8386 183.7491,13.5926 L183.7501,13.5916 L180.9301,10.5466 C181.8951,10.2716 182.6651,9.8216 183.2071,9.1966 C183.8861,8.4186 184.1961,7.4076 184.1941,6.2946 Z M158.9831,13.1646 L151.3131,13.1646 L151.3131,9.5836 L158.5931,9.5836 C158.9151,9.5876 159.2161,9.4476 159.3981,9.2326 C159.5821,9.0176 159.6591,8.7556 159.6601,8.5026 C159.6591,8.2426 159.5791,7.9796 159.3981,7.7626 C159.2191,7.5446 158.9201,7.3936 158.5931,7.3976 L151.3131,7.3976 L151.3131,3.6526 L158.9831,3.6526 C159.3161,3.6556 159.6201,3.5106 159.8071,3.2926 C159.9971,3.0746 160.0831,2.8066 160.0841,2.5426 C160.0831,2.2876 160.0021,2.0236 159.8131,1.8116 C159.6271,1.5976 159.3261,1.4636 159.0031,1.4676 L150.3431,1.4676 C149.9521,1.4656 149.5961,1.6116 149.3501,1.8566 C149.1021,2.0996 148.9621,2.4356 148.9631,2.7856 L148.9631,14.0516 C148.9621,14.4066 149.0991,14.7486 149.3471,14.9966 C149.5941,15.2456 149.9521,15.3926 150.3431,15.3906 L158.9831,15.3906 C159.3161,15.3946 159.6241,15.2706 159.8241,15.0556 C160.0261,14.8426 160.1121,14.5696 160.1121,14.3116 C160.1121,14.0346 160.0171,13.7586 159.8241,13.5376 C159.6331,13.3156 159.3251,13.1616 158.9831,13.1646 Z M134.2401,12.1126 C133.9921,12.5016 133.5701,12.7726 133.0151,12.9466 C132.4641,13.1196 131.7991,13.1856 131.1501,13.1846 L126.9891,13.1846112 L126.9891,9.19358265 L131.7661,9.1936 C132.6031,9.1916 133.3201,9.3626 133.7861,9.6736 C134.2491,9.9886 134.5011,10.3926 134.5101,11.0766 C134.5091,11.5256 134.4061,11.8516 134.2401,12.1126 Z M126.9891,3.6736 L130.6781,3.6736 C131.2631,3.6706 132.0571,3.7836 132.6471,4.0746 C132.9431,4.2196 133.1841,4.4036 133.3471,4.6226 C133.5091,4.8436 133.6061,5.0986 133.6081,5.4536 C133.6061,5.7536 133.5351,5.9676 133.4141,6.1496 C133.2351,6.4186 132.9041,6.6336 132.4331,6.7786 C131.9651,6.9226 131.3721,6.9876 130.7391,6.9876 L126.9891,6.9876 L126.9891,3.6736 Z M134.9201,7.8296 C135.1621,7.6306 135.3651,7.3986 135.5231,7.1426 C135.8331,6.6406 135.9781,6.0556 135.9781,5.4536 C135.9791,4.6516 135.7701,3.9716 135.4151,3.4306 C134.8811,2.6156 134.0501,2.1296 133.1931,1.8436 C132.3331,1.5586 131.4301,1.4676 130.6781,1.4676 L125.8141,1.4676 C125.1721,1.4676 124.6241,1.9746 124.6191,2.6416 L124.6191,14.2166 C124.6241,14.8836 125.1721,15.3896 125.8141,15.3906 L131.1501,15.3906 C132.4881,15.3886 133.8881,15.1856 135.0071,14.5396 C135.5651,14.2156 136.0511,13.7736 136.3921,13.1936 C136.7331,12.6146 136.9231,11.9056 136.9221,11.0766 C136.9241,10.1556 136.6301,9.3636 136.1191,8.7586 C135.7941,8.3716 135.3821,8.0696 134.9201,7.8296 Z M110.4331,1.3376 C110.0201,1.3356 109.6081,1.5696 109.3521,1.9766 L109.7201,2.2106 L109.3521,1.9766 L104.7521,9.1996 L100.1121,1.9756 L100.1111,1.9766 C99.8771,1.5666 99.4671,1.3276 99.0591,1.3316 C98.7601,1.3306 98.4661,1.4526 98.2521,1.6776 C98.0371,1.9026 97.9131,2.2246 97.9141,2.5806 L97.9141,14.4006 C97.9101,14.7586 98.0631,15.0826 98.2971,15.2826 C98.5291,15.4856 98.8181,15.5756 99.0991,15.5756 C99.3811,15.5756 99.6691,15.4856 99.9021,15.2826 C100.1351,15.0826 100.2881,14.7586 100.2841,14.4006 L100.2841,6.5716 L103.6681,11.8446 L103.6711,11.8426 C103.8971,12.2566 104.3161,12.4966 104.7351,12.4926 C105.1591,12.4946 105.5801,12.2566 105.8161,11.8426 L105.8181,11.8446 L109.2011,6.5546 L109.2011,14.4006 C109.1971,14.7586 109.3501,15.0826 109.5841,15.2826 C109.8171,15.4856 110.1051,15.5756 110.3861,15.5756 C110.6681,15.5756 110.9561,15.4856 111.1891,15.2826 C111.4231,15.0826 111.5751,14.7586 111.5711,14.4006 L111.5711,2.5806 C111.5731,2.2306 111.4531,1.9106 111.2401,1.6856 C111.0291,1.4606 110.7341,1.3366 110.4331,1.3376 Z M84.5141,13.1646 L76.8431,13.1646 L76.8431,9.5836 L84.1241,9.5836 C84.4451,9.5876 84.7461,9.4476 84.9281,9.2326 C85.1121,9.0176 85.1901,8.7556 85.1911,8.5026 C85.1901,8.2426 85.1101,7.9796 84.9281,7.7626 C84.7501,7.5446 84.4501,7.3936 84.1241,7.3976 L76.8431,7.3976 L76.8431,3.6526 L84.5141,3.6526 C84.8461,3.6556 85.1511,3.5106 85.3381,3.2926 C85.5281,3.0746 85.6131,2.8066 85.6141,2.5426 C85.6141,2.2876 85.5321,2.0236 85.3441,1.8116 C85.1571,1.5976 84.8571,1.4636 84.5341,1.4676 L75.8741,1.4676 C75.4831,1.4656 75.1271,1.6116 74.8811,1.8566 C74.6331,2.0996 74.4931,2.4356 74.4931,2.7856 L74.4931,14.0516 C74.4931,14.4066 74.6301,14.7486 74.8781,14.9966 C75.1251,15.2456 75.4831,15.3926 75.8741,15.3906 L84.5141,15.3906 C84.8471,15.3946 85.1551,15.2706 85.3551,15.0556 C85.5571,14.8426 85.6431,14.5696 85.6431,14.3116 C85.6421,14.0346 85.5481,13.7586 85.3551,13.5376 C85.1641,13.3156 84.8561,13.1616 84.5141,13.1646 Z M61.7521,1.3096 C61.5451,1.3096 61.3281,1.3606 61.1341,1.4816 C60.9501,1.5956 60.7991,1.7796 60.7061,1.9996 L60.7021,1.9976 L55.9381,11.6766 L51.0581,1.9536 L51.0561,1.9546 C50.8451,1.4956 50.3871,1.2626 49.9841,1.2726 C49.6751,1.2746 49.3821,1.3796 49.1451,1.5716 C48.9101,1.7606 48.7271,2.0656 48.7281,2.4236 C48.7281,2.5826 48.7641,2.7456 48.8321,2.8996 L48.8371,2.9096 L48.8411,2.9196 L54.8341,14.8226 L54.8351,14.8226 C55.0521,15.2856 55.4831,15.5706 55.9151,15.5636 C56.3661,15.5616 56.7671,15.2956 56.9831,14.8956 L56.9871,14.8886 L62.9141,2.8896 L62.9231,2.8606 C62.9661,2.7296 62.9891,2.5966 62.9891,2.4666 C62.9911,2.1076 62.8141,1.7966 62.5791,1.6056 C62.3431,1.4116 62.0531,1.3106 61.7521,1.3096 Z M34.6021,12.0036 C33.7711,12.8596 32.6301,13.3276 31.3521,13.3286 C30.0111,13.3266 28.8581,12.8396 28.0261,11.9746 C27.1961,11.1086 26.6791,9.8526 26.6771,8.2646 C26.6781,6.9526 27.0561,5.8606 27.7031,5.0506 C28.3511,4.2426 29.2691,3.7066 30.4111,3.5246 C30.6761,3.4876 30.9461,3.4676 31.2231,3.4676 C31.4981,3.4676 31.7791,3.4876 32.0671,3.5256 C34.3761,3.9086 35.9561,5.8136 35.9641,8.2646 C35.9621,9.8936 35.4311,11.1476 34.6021,12.0036 Z M32.3831,1.2876 L32.3741,1.2856 L32.3661,1.2846 C31.9741,1.2396 31.5841,1.2126 31.1851,1.2126 C30.8271,1.2126 30.4611,1.2346 30.0821,1.2856 L30.0771,1.2866 L30.0731,1.2876 C26.5931,1.8316 24.2601,4.7846 24.2661,8.2026 C24.2641,10.4766 25.0451,12.3446 26.3331,13.6316 C27.6201,14.9196 29.4021,15.6176 31.3521,15.6166 C33.2091,15.6166 34.9651,14.8946 36.2521,13.6006 C37.5421,12.3076 38.3561,10.4426 38.3551,8.2026 C38.3561,4.6176 35.7431,1.8066 32.3831,1.2876 Z M11.8971,1.5506 C11.6581,1.3696 11.3781,1.2986 11.1051,1.2976 C10.8251,1.2986 10.5421,1.3726 10.2991,1.5506 C10.0571,1.7246 9.8701,2.0406 9.8751,2.3956 L9.8751,9.6756 L9.9841,11.3186 L2.9651,1.9286 L2.9631,1.9296 C2.6711,1.5086 2.2181,1.2806 1.7721,1.2816 C1.4551,1.2806 1.1331,1.3966 0.8941,1.6366 C0.6531,1.8756 0.5151,2.2286 0.5171,2.6206 L0.5171,14.3806 C0.5131,14.7456 0.6691,15.0776 0.9081,15.2806 C1.1461,15.4876 1.4411,15.5776 1.7271,15.5786 C2.0171,15.5776 2.3131,15.4866 2.5521,15.2806 C2.7931,15.0786 2.9531,14.7476 2.9491,14.3806 L2.9491,7.1236 L2.8681,5.7296 L9.6741,14.8466 L9.6781,14.8436 C9.9711,15.2866 10.4621,15.4836 10.9251,15.4846 C11.2501,15.4836 11.5831,15.3906 11.8551,15.1696 C12.1281,14.9516 12.3121,14.5856 12.3071,14.1756 L12.3071,2.3956 C12.3131,2.0456 12.1381,1.7276 11.8971,1.5506 Z" id="Fill-12"></path>
            <path d="M794.0633,9.7782 L796.5973,4.7252 L799.1163,9.7782 L794.0633,9.7782 Z M803.8193,13.8972 L803.8213,13.8952 L797.6423,1.7422 L797.6393,1.7362 C797.4263,1.3282 796.9973,1.1102 796.5993,1.1182 C796.3993,1.1182 796.1943,1.1622 796.0013,1.2642 C795.8143,1.3622 795.6403,1.5272 795.5343,1.7482 L795.5323,1.7462 L789.3303,13.9652 L789.3263,13.9752 C789.2593,14.1222 789.2233,14.2782 789.2233,14.4322 C789.2233,14.7892 789.4143,15.0862 789.6473,15.2672 C789.8833,15.4502 790.1683,15.5492 790.4703,15.5512 C790.6573,15.5512 790.8523,15.5102 791.0333,15.4092 C791.2103,15.3102 791.3663,15.1492 791.4643,14.9482 L791.4653,14.9482 L793.0063,11.9442 L800.1883,11.9442 L801.6683,14.8842 L801.6693,14.8842 C801.7763,15.1032 801.9483,15.2732 802.1393,15.3752 C802.3333,15.4802 802.5413,15.5222 802.7413,15.5222 C803.0313,15.5212 803.3123,15.4362 803.5493,15.2652 C803.7843,15.0992 803.9823,14.8072 803.9813,14.4542 C803.9813,14.2632 803.9203,14.0732 803.8193,13.8972 Z M777.6363,1.5502 C777.3973,1.3692 777.1173,1.2992 776.8433,1.2972 C776.5643,1.2992 776.2813,1.3732 776.0393,1.5512 C775.7963,1.7242 775.6093,2.0402 775.6143,2.3952 L775.6143,9.6762 L775.7233,11.3182 L768.7043,1.9292 L768.7033,1.9302 C768.4103,1.5092 767.9583,1.2812 767.5113,1.2812 C767.1953,1.2802 766.8733,1.3972 766.6333,1.6362 C766.3923,1.8752 766.2543,2.2282 766.2563,2.6212 L766.2563,14.3812 C766.2523,14.7462 766.4083,15.0772 766.6473,15.2812 C766.8853,15.4872 767.1793,15.5782 767.4663,15.5782 C767.7563,15.5772 768.0523,15.4862 768.2923,15.2812 C768.5323,15.0782 768.6923,14.7472 768.6883,14.3812 L768.6883,7.1192 L768.6073,5.7292 L775.4143,14.8462 L775.4173,14.8442 C775.7103,15.2872 776.2013,15.4832 776.6653,15.4852 C776.9893,15.4842 777.3223,15.3912 777.5943,15.1702 C777.8683,14.9522 778.0513,14.5852 778.0463,14.1752 L778.0463,2.3952 C778.0523,2.0462 777.8773,1.7272 777.6363,1.5502 Z M750.3383,12.0042 C749.5073,12.8592 748.3673,13.3272 747.0883,13.3282 C745.7493,13.3272 744.5953,12.8402 743.7633,11.9752 C742.9333,11.1092 742.4173,9.8532 742.4153,8.2652 C742.4163,6.9532 742.7933,5.8602 743.4403,5.0502 C744.0873,4.2432 745.0053,3.7062 746.1483,3.5252 C746.4133,3.4872 746.6843,3.4682 746.9603,3.4672 C747.2353,3.4682 747.5163,3.4872 747.8033,3.5252 C750.1143,3.9092 751.6933,5.8132 751.7013,8.2652 C751.7003,9.8932 751.1683,11.1472 750.3383,12.0042 Z M748.1203,1.2872 L748.1113,1.2862 L748.1023,1.2852 C747.7103,1.2402 747.3213,1.2132 746.9213,1.2132 C746.5643,1.2132 746.1983,1.2352 745.8193,1.2862 L745.8143,1.2862 L745.8103,1.2872 C742.3303,1.8312 739.9973,4.7852 740.0023,8.2032 C740.0003,10.4762 740.7813,12.3452 742.0703,13.6322 C743.3573,14.9202 745.1393,15.6182 747.0883,15.6162 C748.9463,15.6172 750.7023,14.8942 751.9903,13.6002 C753.2793,12.3072 754.0933,10.4422 754.0913,8.2032 C754.0933,4.6182 751.4803,1.8072 748.1203,1.2872 Z M728.9763,3.3842 C729.1843,3.1202 729.3123,2.8232 729.3133,2.5102 C729.3173,2.2162 729.1793,1.9122 728.9373,1.7232 C728.6963,1.5312 728.3843,1.4462 728.0393,1.4462 L718.2563,1.4462 L718.2433,1.4472 C717.9123,1.4672 717.6193,1.6122 717.4293,1.8292 C717.2393,2.0452 717.1503,2.3142 717.1503,2.5772 C717.1503,2.8432 717.2413,3.1152 717.4383,3.3282 C717.6343,3.5432 717.9403,3.6762 718.2713,3.6732 L725.6233,3.6732 L717.0533,13.4852 L717.0503,13.4892 C716.8493,13.7362 716.7293,14.0242 716.7283,14.3222 C716.7253,14.6172 716.8603,14.9152 717.0963,15.1072 C717.3323,15.3002 717.6423,15.3912 717.9833,15.3912 L728.1353,15.3912 L728.1493,15.3902 C728.4933,15.3712 728.7963,15.2242 728.9953,15.0022 C729.1933,14.7812 729.2893,14.5022 729.2893,14.2292 C729.2893,13.9532 729.1913,13.6722 728.9863,13.4542 C728.7813,13.2342 728.4663,13.1002 728.1223,13.1032 L720.3313,13.1032 L728.9693,3.3942 L728.9763,3.3842 Z M704.2143,0.9712 C703.9293,0.9722 703.6353,1.0642 703.4003,1.2712 C703.1633,1.4752 703.0103,1.8062 703.0143,2.1702 L703.0143,14.4422 C703.0103,14.7982 703.1673,15.1242 703.4053,15.3192 C703.6413,15.5172 703.9293,15.6012 704.2093,15.6012 C704.4943,15.6002 704.7843,15.5142 705.0233,15.3192 C705.2623,15.1262 705.4313,14.8022 705.4263,14.4422 L705.4263,2.1702 C705.4303,1.8042 705.2733,1.4742 705.0353,1.2712 C704.7973,1.0652 704.5033,0.9722 704.2143,0.9712 Z M687.6893,7.9502 C687.1693,8.3602 686.3153,8.6502 685.0583,8.6492 L681.3493,8.64920258 L681.3493,3.6932 L685.0583,3.6932 C686.1673,3.6942 687.0103,4.0072 687.5723,4.4792 C688.1323,4.9522 688.4283,5.5802 688.4393,6.3002 L688.4403,6.3742 C688.4353,7.0122 688.2073,7.5382 687.6893,7.9502 Z M690.8303,6.2952 C690.8333,4.9862 690.3303,3.7502 689.3383,2.8632 C688.3483,1.9752 686.8933,1.4452 685.0383,1.4462 L680.1743,1.4462 C679.8583,1.4452 679.5513,1.5502 679.3273,1.7622 C679.1003,1.9722 678.9763,2.2822 678.9793,2.6012 L678.9793,14.3812 C678.9743,14.7282 679.1343,15.0462 679.3693,15.2342 C679.6013,15.4242 679.8823,15.5062 680.1583,15.5072 C680.4353,15.5062 680.7203,15.4222 680.9563,15.2282 C681.1923,15.0362 681.3533,14.7142 681.3493,14.3602 L681.3493,10.8152 L684.7033,10.8152 L688.7253,15.1742 L688.7263,15.1762 C688.9713,15.4322 689.2963,15.5612 689.6003,15.5592 C689.9073,15.5582 690.1883,15.4422 690.4023,15.2482 C690.6153,15.0562 690.7663,14.7712 690.7663,14.4462 C690.7673,14.1452 690.6293,13.8382 690.3853,13.5922 L690.3863,13.5912 L687.5673,10.5462 C688.5323,10.2722 689.3013,9.8212 689.8433,9.1972 C690.5223,8.4182 690.8323,7.4072 690.8303,6.2952 Z M657.6663,9.7782 L660.2013,4.7252 L662.7183,9.7782 L657.6663,9.7782 Z M667.4243,13.8952 L661.2443,1.7402 L661.2423,1.7362 C661.0293,1.3282 660.6003,1.1102 660.2023,1.1182 C660.0013,1.1182 659.7963,1.1622 659.6043,1.2642 C659.4173,1.3622 659.2433,1.5272 659.1373,1.7482 L659.1343,1.7462 L652.9333,13.9662 L652.9293,13.9752 C652.8623,14.1222 652.8273,14.2782 652.8273,14.4322 C652.8263,14.7892 653.0163,15.0862 653.2503,15.2672 C653.4863,15.4502 653.7723,15.5492 654.0733,15.5512 C654.2593,15.5512 654.4553,15.5102 654.6353,15.4092 C654.8133,15.3102 654.9683,15.1492 655.0673,14.9482 L655.0693,14.9482 L656.6103,11.9442 L663.7913,11.9442 L665.2713,14.8842 L665.2723,14.8842 C665.3783,15.1032 665.5503,15.2732 665.7423,15.3752 C665.9353,15.4802 666.1433,15.5222 666.3433,15.5222 C666.6343,15.5212 666.9163,15.4362 667.1523,15.2652 C667.3863,15.0992 667.5853,14.8072 667.5843,14.4542 C667.5843,14.2632 667.5233,14.0732 667.4213,13.8972 L667.4243,13.8952 Z M626.4983,13.4642 C626.2763,13.2732 625.9973,13.1622 625.6953,13.1612 C625.4983,13.1602 625.2893,13.2132 625.1043,13.3312 C624.9183,13.4482 624.7643,13.6302 624.6653,13.8512 L623.8203,15.8302 L623.8203,15.8312 C623.7483,15.9962 623.7113,16.1662 623.7113,16.3312 C623.7153,16.9682 624.2253,17.4362 624.8033,17.4372 C625.2033,17.4452 625.6143,17.1842 625.8213,16.7512 L625.8253,16.7442 L626.7483,14.8152 L626.7473,14.8142 C626.8343,14.6442 626.8823,14.4622 626.8823,14.2842 C626.8823,13.9442 626.7173,13.6522 626.4983,13.4642 Z M604.1133,9.7782 L606.6483,4.7252 L609.1663,9.7782 L604.1133,9.7782 Z M613.8723,13.8952 L607.6923,1.7402 L607.6893,1.7362 C607.4763,1.3282 607.0473,1.1102 606.6493,1.1182 C606.4493,1.1182 606.2443,1.1622 606.0513,1.2642 C605.8653,1.3622 605.6913,1.5272 605.5853,1.7482 L605.5833,1.7462 L599.3803,13.9662 L599.3763,13.9742 C599.3093,14.1232 599.2743,14.2792 599.2743,14.4312 C599.2743,14.7892 599.4643,15.0862 599.6983,15.2662 C599.9333,15.4502 600.2193,15.5492 600.5203,15.5512 C600.7073,15.5512 600.9033,15.5102 601.0833,15.4092 C601.2603,15.3102 601.4163,15.1492 601.5153,14.9482 L601.5163,14.9482 L603.0573,11.9442 L610.2383,11.9442 L611.7183,14.8842 L611.7193,14.8842 C611.8263,15.1032 611.9983,15.2732 612.1893,15.3752 C612.3823,15.4802 612.5903,15.5222 612.7913,15.5222 C613.0823,15.5212 613.3633,15.4362 613.6003,15.2652 C613.8343,15.0992 614.0333,14.8072 614.0313,14.4542 C614.0313,14.2632 613.9703,14.0732 613.8693,13.8972 L613.8723,13.8952 Z M588.5383,4.2872 L588.5413,4.2952 L588.5413,4.2942 L588.5383,4.2872 Z M586.0183,7.6602 C585.0263,7.4252 583.9263,7.3482 582.8763,7.2562 L582.8743,7.2562 L582.8723,7.2562 C581.6853,7.1652 580.5973,7.0662 579.8773,6.8032 C579.5163,6.6732 579.2573,6.5092 579.0963,6.3182 C578.9363,6.1252 578.8443,5.9002 578.8413,5.5352 C578.8443,5.1742 578.9603,4.9052 579.1743,4.6542 C579.4923,4.2802 580.0633,3.9862 580.6873,3.8062 C581.3093,3.6242 581.9753,3.5492 582.4483,3.5502 C583.1603,3.5492 584.0423,3.6172 584.7823,3.8572 C585.1523,3.9762 585.4853,4.1372 585.7493,4.3412 C586.0123,4.5472 586.2093,4.7902 586.3323,5.1002 L586.3343,5.1082 L586.3383,5.1162 C586.4343,5.3362 586.6053,5.5052 586.7923,5.6042 C586.9793,5.7042 587.1803,5.7432 587.3753,5.7432 C587.6593,5.7422 587.9383,5.6612 588.1773,5.4922 C588.4133,5.3272 588.6153,5.0322 588.6133,4.6762 C588.6133,4.5492 588.5883,4.4202 588.5423,4.2952 C588.0633,2.9912 587.0523,2.1862 585.9273,1.7392 C584.7983,1.2882 583.5403,1.1602 582.4273,1.1592 C581.1063,1.1612 579.6403,1.4712 578.4573,2.1632 C577.8673,2.5092 577.3463,2.9562 576.9693,3.5172 C576.5923,4.0762 576.3683,4.7542 576.3693,5.5152 C576.3683,6.3502 576.5823,7.0432 576.9693,7.5822 C577.5553,8.3942 578.4693,8.8182 579.4653,9.0712 C580.4653,9.3252 581.5773,9.4142 582.6403,9.5002 C583.7683,9.5902 584.8523,9.6792 585.5853,9.9342 C585.9533,10.0602 586.2223,10.2222 586.3883,10.4102 C586.5533,10.6012 586.6473,10.8192 586.6513,11.1782 C586.6483,11.6012 586.5213,11.9092 586.2993,12.1832 C585.9683,12.5912 585.3763,12.8992 584.6923,13.0872 C584.0113,13.2762 583.2533,13.3492 582.6323,13.3492 C581.8453,13.3502 580.9063,13.2572 580.1393,12.9772 C579.7563,12.8392 579.4183,12.6552 579.1573,12.4262 C578.8943,12.1962 578.7053,11.9262 578.5963,11.5822 L578.5893,11.5842 C578.5273,11.3222 578.3683,11.0982 578.1673,10.9722 C577.9553,10.8352 577.7173,10.7832 577.4903,10.7822 C577.1953,10.7842 576.9033,10.8672 576.6533,11.0452 C576.4053,11.2162 576.1963,11.5272 576.1993,11.8982 C576.1993,11.9982 576.2133,12.0982 576.2413,12.1972 C576.6263,13.5992 577.7303,14.4842 578.9463,14.9972 C580.1683,15.5152 581.5383,15.6972 582.6323,15.6992 C583.9503,15.6972 585.5133,15.4542 586.8013,14.7732 C587.4443,14.4322 588.0203,13.9752 588.4373,13.3722 C588.8563,12.7712 589.1043,12.0242 589.1033,11.1582 C589.1043,10.3192 588.8923,9.6292 588.5043,9.0962 C587.9183,8.2942 587.0053,7.8952 586.0183,7.6602 Z M588.5413,4.2952 C588.5423,4.2952 588.5423,4.2952 588.5423,4.2952 L588.5423,4.2972 L588.5413,4.2952 Z M563.9733,13.1642 L556.3033,13.1642 L556.3033,9.5832 L563.5843,9.5832 C563.9063,9.5872 564.2063,9.4482 564.3883,9.2322 C564.5723,9.0172 564.6503,8.7552 564.6503,8.5022 C564.6503,8.2432 564.5703,7.9802 564.3883,7.7622 C564.2093,7.5442 563.9103,7.3942 563.5843,7.3982 L556.3033,7.3982 L556.3033,3.6532 L563.9733,3.6532 C564.3063,3.6562 564.6113,3.5102 564.7973,3.2922 C564.9873,3.0752 565.0733,2.8062 565.0743,2.5422 C565.0743,2.2882 564.9923,2.0242 564.8033,1.8112 C564.6173,1.5972 564.3163,1.4632 563.9943,1.4672 L555.3343,1.4672 C554.9423,1.4652 554.5863,1.6112 554.3403,1.8572 C554.0923,2.1002 553.9533,2.4352 553.9543,2.7852 L553.9543,14.0522 C553.9533,14.4072 554.0893,14.7492 554.3373,14.9962 C554.5843,15.2452 554.9423,15.3922 555.3343,15.3912 L563.9733,15.3912 C564.3063,15.3942 564.6153,15.2702 564.8153,15.0562 C565.0163,14.8432 565.1033,14.5702 565.1023,14.3112 C565.1013,14.0342 565.0073,13.7592 564.8143,13.5372 C564.6243,13.3152 564.3163,13.1612 563.9733,13.1642 Z M539.7883,1.3372 C539.3753,1.3352 538.9633,1.5702 538.7083,1.9762 L539.0753,2.2112 L538.7073,1.9772 L534.1073,9.1992 L529.4683,1.9752 L529.4663,1.9772 C529.2323,1.5672 528.8233,1.3282 528.4153,1.3312 C528.1163,1.3302 527.8213,1.4522 527.6073,1.6772 C527.3923,1.9022 527.2683,2.2242 527.2693,2.5802 L527.2693,14.4012 C527.2653,14.7582 527.4183,15.0832 527.6523,15.2832 C527.8843,15.4852 528.1733,15.5752 528.4553,15.5762 C528.7363,15.5752 529.0243,15.4852 529.2573,15.2832 C529.4913,15.0832 529.6433,14.7582 529.6403,14.4012 L529.6403,6.5712 L533.0233,11.8452 L533.0263,11.8432 C533.2523,12.2562 533.6703,12.4962 534.0903,12.4922 C534.5143,12.4952 534.9353,12.2562 535.1713,11.8432 L535.1743,11.8442 L538.5573,6.5542 L538.5573,14.4012 C538.5533,14.7582 538.7063,15.0832 538.9403,15.2832 C539.1723,15.4852 539.4603,15.5752 539.7423,15.5762 C540.0243,15.5752 540.3123,15.4852 540.5443,15.2832 C540.7783,15.0832 540.9313,14.7582 540.9273,14.4012 L540.9273,2.5802 C540.9283,2.2302 540.8083,1.9102 540.5963,1.6862 C540.3843,1.4602 540.0883,1.3362 539.7883,1.3372 Z" id="Fill-14"></path>
        </g>
    </g>
</svg>