<?xml version="1.0" encoding="utf-8"?>
<!-- Generator: Adobe Illustrator 22.1.0, SVG Export Plug-In . SVG Version: 6.00 Build 0)  -->
<svg version="1.1" id="Layer_1" xmlns="http://www.w3.org/2000/svg" xmlns:xlink="http://www.w3.org/1999/xlink" x="0px" y="0px"
	 viewBox="0 0 860 513" style="enable-background:new 0 0 860 513;" xml:space="preserve">
<style type="text/css">
	.st0{fill:#D4BB98;}
</style>
<title>Desktop HD</title>
<desc>Created with Sketch.</desc>
<g>
	<g>
		<path class="st0" d="M25.2,194c0-0.9,1.6-0.9,1.6,0v12.1c0,1-1.4,1.2-1.9,0.4L17.1,196l0.2,2.9v7.4c0,1-1.6,1-1.6,0v-12
			c0-1.1,1.2-1.2,1.7-0.4l8.1,10.8l-0.2-3.2V194z"/>
		<path class="st0" d="M40,200c0-3.3,2.2-6.1,5.6-6.6c0.8-0.1,1.5-0.1,2.2,0c3.2,0.5,5.7,3.2,5.7,6.6c0,4.4-3.1,7.1-6.7,7.1
			C43,207.1,40,204.4,40,200z M41.5,200c0,3.4,2.3,5.6,5.2,5.6c2.8,0,5.2-2.1,5.2-5.6c0-2.7-1.8-4.9-4.4-5.3c-0.6-0.1-1.2-0.1-1.8,0
			C43.2,195.1,41.5,197.2,41.5,200z"/>
		<path class="st0" d="M65.1,194.4c-0.4-0.9,1-1.5,1.5-0.6l5.4,10.8l5.3-10.7c0.3-0.9,1.8-0.4,1.4,0.5l-6,12.2
			c-0.3,0.5-1,0.7-1.4-0.1L65.1,194.4z"/>
		<path class="st0" d="M92.9,205.5h8.3c0.9,0,1,1.4,0,1.4h-8.8c-0.6,0-1-0.4-1-0.9v-11.5c0-0.5,0.4-0.9,1-0.9h8.9
			c0.9,0,0.9,1.3,0,1.3h-8.3v4.7h7.9c0.8,0,0.9,1.3,0,1.3h-7.9V205.5z"/>
		<path class="st0" d="M126.9,193.8c0.5-0.8,1.4-0.5,1.4,0.4v12.1c0,1-1.5,1-1.5,0v-9.6l-4.3,6.7c-0.3,0.6-1.1,0.6-1.4,0l-4.3-6.7
			v9.5c0,1-1.5,1-1.5,0v-12.1c0-0.9,1-1.1,1.4-0.4l5.1,8L126.9,193.8z"/>
		<path class="st0" d="M148.9,206.9h-5.5c-0.4,0-0.8-0.3-0.8-0.8v-11.8c0-0.4,0.4-0.8,0.8-0.8h5c2,0,5,0.7,5,3.6
			c0,1.1-0.5,2.1-1.6,2.5c1.5,0.5,2.6,1.6,2.6,3.3C154.3,206,151.5,206.9,148.9,206.9z M144.2,194.9v4.3h4.3c1.8,0,3.4-0.5,3.4-2
			c0-1.8-2.1-2.3-3.4-2.3H144.2z M144.2,205.5h4.7c1.8,0,3.9-0.5,3.9-2.6c0-1.7-1.4-2.4-3.3-2.4h-5.3V205.5z"/>
		<path class="st0" d="M169,205.5h8.3c0.9,0,1,1.4,0,1.4h-8.8c-0.6,0-1-0.4-1-0.9v-11.5c0-0.5,0.4-0.9,1-0.9h8.9
			c0.9,0,0.9,1.3,0,1.3H169v4.7h7.9c0.8,0,0.9,1.3,0,1.3H169V205.5z"/>
		<path class="st0" d="M193,202.2v4.1c0,1-1.5,1-1.5,0v-12.1c0-0.4,0.3-0.7,0.8-0.7h5c3.6,0,5.5,2.1,5.5,4.5c0,2.1-1.2,3.7-3.7,4.1
			l3.4,3.7c0.8,0.8-0.4,1.7-1.1,1l-4.2-4.6H193z M193,200.9h4.2c2.8,0,3.9-1.3,3.9-2.9c0-1.7-1.5-3.1-3.9-3.1H193V200.9z"/>
		<path class="st0" d="M234.5,193.8c0.5-0.5,1.5-0.3,1.5,0.4v12.2c0,0.9-1.4,0.9-1.4,0v-10.3l-1.8,2.5c-0.7,1-1.9,0.1-1.3-0.7
			L234.5,193.8z"/>
		<path class="st0" d="M253.1,193.3c2.5,0,4.9,1.7,4.9,5v3.8c0,3.3-2.4,5-4.9,5s-4.9-1.7-4.9-5v-3.8
			C248.2,195,250.6,193.3,253.1,193.3z M253.1,194.7c-1.7,0-3.4,1-3.4,3.6v3.8c0,2.5,1.7,3.6,3.4,3.6c1.7,0,3.5-1,3.4-3.6v-3.8
			C256.5,195.7,254.8,194.7,253.1,194.7z"/>
		<path class="st0" d="M280.8,193.5c1,0,1,1.4,0,1.4h-4.7c0,3.8,0,7.6,0,11.4c0,0.5-0.4,0.8-0.8,0.8s-0.8-0.3-0.8-0.8v-11.4h-4.7
			c-1,0-1-1.4,0-1.4H280.8z"/>
		<path class="st0" d="M295.4,199.8h7.7V194c0-1,1.5-1,1.5,0v12.2c0,1-1.5,1.1-1.5,0v-5.2c-2.7,0-5,0-7.7,0v5.2c0,1.1-1.5,1-1.5,0
			V194c0-1,1.5-1,1.5,0V199.8z"/>
	</g>
	<g>
		<path class="st0" d="M566.4,193.8c0.5-0.8,1.4-0.5,1.4,0.4v12.1c0,1-1.5,1-1.5,0v-9.6l-4.3,6.7c-0.3,0.6-1.1,0.6-1.4,0l-4.3-6.7
			v9.5c0,1-1.5,1-1.5,0v-12.1c0-0.9,1-1.1,1.4-0.4l5.1,8L566.4,193.8z"/>
		<path class="st0" d="M584.1,205.5h8.3c0.9,0,1,1.4,0,1.4h-8.8c-0.6,0-1-0.4-1-0.9v-11.5c0-0.5,0.4-0.9,1-0.9h8.9
			c0.9,0,0.9,1.3,0,1.3h-8.3v4.7h7.9c0.8,0,0.9,1.3,0,1.3h-7.9V205.5z"/>
		<path class="st0" d="M607.4,203.6c0.5,1.7,2.9,2.1,4.6,2.1c1.8,0,4.6-0.5,4.6-2.7c0-1.8-2.2-2-4.5-2.2c-2.9-0.2-6-0.5-6-3.6
			c0-2.8,3.2-4,5.8-4c2.2,0,5,0.5,5.8,2.9c0.3,0.8-1.1,1.2-1.4,0.5c-0.6-1.6-2.9-1.9-4.4-1.9c-1.4,0-4.1,0.6-4.1,2.5
			c0,1.8,2.1,2,4.5,2.2c2.9,0.3,6,0.4,6,3.5c0,3.2-3.6,4.2-6.2,4.2c-2.1,0-5.4-0.7-6.1-3.3C605.6,203,607.3,202.7,607.4,203.6z"/>
		<path class="st0" d="M633.1,203.3l-1.7,3.3c-0.4,0.8-1.8,0.2-1.4-0.6l6.3-12.5c0.1-0.3,0.4-0.4,0.7-0.4c0.3,0,0.5,0.1,0.7,0.4
			l6.3,12.4c0.5,0.9-1,1.4-1.4,0.6l-1.6-3.3H633.1z M637.1,195.4l-3.3,6.6h6.6L637.1,195.4z"/>
		<path class="st0" d="M656.8,208.5c-0.5,0.9-1.6,0.3-1.2-0.6l0.9-2c0.4-0.9,1.8-0.3,1.3,0.6L656.8,208.5z"/>
		<path class="st0" d="M689.5,203.3l-1.7,3.3c-0.4,0.8-1.8,0.2-1.4-0.6l6.3-12.5c0.1-0.3,0.4-0.4,0.7-0.4c0.3,0,0.5,0.1,0.7,0.4
			l6.3,12.4c0.5,0.9-1,1.4-1.4,0.6l-1.6-3.3H689.5z M693.4,195.4l-3.3,6.6h6.6L693.4,195.4z"/>
		<path class="st0" d="M715.2,202.2v4.1c0,1-1.5,1-1.5,0v-12.1c0-0.4,0.3-0.7,0.8-0.7h5c3.6,0,5.5,2.1,5.5,4.5
			c0,2.1-1.2,3.7-3.7,4.1l3.4,3.7c0.8,0.8-0.4,1.7-1,1l-4.2-4.6H715.2z M715.2,200.9h4.2c2.8,0,3.9-1.3,3.9-2.9
			c0-1.7-1.5-3.1-3.9-3.1h-4.2V200.9z"/>
		<path class="st0" d="M738.7,193.8c0-1,1.6-1,1.6,0v12.6c0,1-1.6,1-1.6,0V193.8z"/>
		<path class="st0" d="M755.5,205.4h9c1,0,1,1.4,0,1.4h-10.4c-0.8,0-1.1-0.7-0.6-1.2l9.4-10.8h-8.5c-0.9,0-0.9-1.3,0-1.4h10
			c0.9,0,1.1,0.7,0.6,1.3L755.5,205.4z"/>
		<path class="st0" d="M777.6,200c0-3.3,2.2-6.1,5.6-6.6c0.8-0.1,1.5-0.1,2.2,0c3.2,0.5,5.7,3.2,5.7,6.6c0,4.4-3.2,7.1-6.7,7.1
			C780.7,207.1,777.6,204.4,777.6,200z M779.2,200c0,3.4,2.3,5.6,5.2,5.6c2.8,0,5.2-2.1,5.2-5.6c0-2.7-1.8-4.9-4.4-5.3
			c-0.6-0.1-1.2-0.1-1.8,0C780.9,195.1,779.2,197.2,779.2,200z"/>
		<path class="st0" d="M814.6,194c0-0.9,1.6-0.9,1.6,0v12.1c0,1-1.4,1.2-1.9,0.4l-7.9-10.5l0.2,2.9v7.4c0,1-1.6,1-1.6,0v-12
			c0-1.1,1.2-1.2,1.7-0.4l8.1,10.8l-0.2-3.2V194z"/>
		<path class="st0" d="M832.2,203.3l-1.7,3.3c-0.4,0.8-1.8,0.2-1.4-0.6l6.3-12.5c0.1-0.3,0.4-0.4,0.7-0.4c0.3,0,0.5,0.1,0.7,0.4
			l6.3,12.4c0.5,0.9-1,1.4-1.4,0.6l-1.6-3.3H832.2z M836.1,195.4l-3.3,6.6h6.6L836.1,195.4z"/>
	</g>
</g>
</svg>
